G04 #@! TF.FileFunction,Copper,L1,Top,Signal*
%FSLAX46Y46*%
G04 Gerber Fmt 4.6, Leading zero omitted, Abs format (unit mm)*
G04 Created by KiCad (PCBNEW 4.0.7) date 12/21/17 09:23:24*
%MOMM*%
%LPD*%
G01*
G04 APERTURE LIST*
%ADD10C,0.100000*%
%ADD11C,0.300000*%
%ADD12C,0.254000*%
%ADD13C,4.500000*%
%ADD14R,2.400000X2.400000*%
%ADD15C,2.400000*%
%ADD16R,1.600000X1.600000*%
%ADD17C,1.600000*%
%ADD18O,1.600000X1.600000*%
%ADD19O,1.500000X0.900000*%
%ADD20R,1.500000X0.900000*%
%ADD21O,3.800000X4.800000*%
%ADD22R,3.800000X4.800000*%
%ADD23O,4.800000X3.800000*%
%ADD24C,2.200000*%
%ADD25O,2.200000X2.200000*%
%ADD26C,2.340000*%
%ADD27R,1.800000X2.200000*%
%ADD28R,2.200000X2.200000*%
%ADD29C,1.500000*%
%ADD30R,1.800000X1.800000*%
%ADD31C,1.800000*%
%ADD32R,0.600000X1.500000*%
%ADD33R,1.524000X1.524000*%
%ADD34C,1.524000*%
%ADD35C,2.000000*%
%ADD36R,2.000000X2.000000*%
%ADD37C,3.900000*%
%ADD38R,1.700000X1.700000*%
%ADD39O,1.700000X1.700000*%
%ADD40O,1.800000X1.800000*%
%ADD41C,1.700000*%
%ADD42C,2.100000*%
%ADD43R,2.100000X2.100000*%
%ADD44C,4.100000*%
%ADD45C,3.300000*%
%ADD46C,1.000000*%
%ADD47C,0.600000*%
%ADD48C,0.508000*%
%ADD49C,0.381000*%
G04 APERTURE END LIST*
D10*
D11*
X207233715Y-87603143D02*
X207233715Y-84603143D01*
X209090857Y-87603143D02*
X208805143Y-87460286D01*
X208662286Y-87317429D01*
X208519429Y-87031714D01*
X208519429Y-86174571D01*
X208662286Y-85888857D01*
X208805143Y-85746000D01*
X209090857Y-85603143D01*
X209519429Y-85603143D01*
X209805143Y-85746000D01*
X209948000Y-85888857D01*
X210090857Y-86174571D01*
X210090857Y-87031714D01*
X209948000Y-87317429D01*
X209805143Y-87460286D01*
X209519429Y-87603143D01*
X209090857Y-87603143D01*
X210948000Y-84603143D02*
X212662286Y-84603143D01*
X211805143Y-87603143D02*
X211805143Y-84603143D01*
X214948000Y-87603143D02*
X214948000Y-86031714D01*
X214805143Y-85746000D01*
X214519429Y-85603143D01*
X213948000Y-85603143D01*
X213662286Y-85746000D01*
X214948000Y-87460286D02*
X214662286Y-87603143D01*
X213948000Y-87603143D01*
X213662286Y-87460286D01*
X213519429Y-87174571D01*
X213519429Y-86888857D01*
X213662286Y-86603143D01*
X213948000Y-86460286D01*
X214662286Y-86460286D01*
X214948000Y-86317429D01*
X216090857Y-84603143D02*
X216805143Y-87603143D01*
X217376572Y-85460286D01*
X217948000Y-87603143D01*
X218662286Y-84603143D01*
X221090857Y-87603143D02*
X221090857Y-86031714D01*
X220948000Y-85746000D01*
X220662286Y-85603143D01*
X220090857Y-85603143D01*
X219805143Y-85746000D01*
X221090857Y-87460286D02*
X220805143Y-87603143D01*
X220090857Y-87603143D01*
X219805143Y-87460286D01*
X219662286Y-87174571D01*
X219662286Y-86888857D01*
X219805143Y-86603143D01*
X220090857Y-86460286D01*
X220805143Y-86460286D01*
X221090857Y-86317429D01*
X222090857Y-85603143D02*
X223233714Y-85603143D01*
X222519429Y-84603143D02*
X222519429Y-87174571D01*
X222662286Y-87460286D01*
X222948000Y-87603143D01*
X223233714Y-87603143D01*
X223805143Y-85603143D02*
X224948000Y-85603143D01*
X224233715Y-84603143D02*
X224233715Y-87174571D01*
X224376572Y-87460286D01*
X224662286Y-87603143D01*
X224948000Y-87603143D01*
X225948001Y-87603143D02*
X225948001Y-84603143D01*
X225948001Y-86031714D02*
X227662286Y-86031714D01*
X227662286Y-87603143D02*
X227662286Y-84603143D01*
X230090858Y-86031714D02*
X230519429Y-86174571D01*
X230662286Y-86317429D01*
X230805143Y-86603143D01*
X230805143Y-87031714D01*
X230662286Y-87317429D01*
X230519429Y-87460286D01*
X230233715Y-87603143D01*
X229090858Y-87603143D01*
X229090858Y-84603143D01*
X230090858Y-84603143D01*
X230376572Y-84746000D01*
X230519429Y-84888857D01*
X230662286Y-85174571D01*
X230662286Y-85460286D01*
X230519429Y-85746000D01*
X230376572Y-85888857D01*
X230090858Y-86031714D01*
X229090858Y-86031714D01*
X211305143Y-90403143D02*
X212019429Y-92403143D01*
X212733715Y-90403143D01*
X215019429Y-92260286D02*
X214733715Y-92403143D01*
X214162286Y-92403143D01*
X213876572Y-92260286D01*
X213733715Y-91974571D01*
X213733715Y-90831714D01*
X213876572Y-90546000D01*
X214162286Y-90403143D01*
X214733715Y-90403143D01*
X215019429Y-90546000D01*
X215162286Y-90831714D01*
X215162286Y-91117429D01*
X213733715Y-91403143D01*
X216448001Y-92403143D02*
X216448001Y-90403143D01*
X216448001Y-90974571D02*
X216590858Y-90688857D01*
X216733715Y-90546000D01*
X217019429Y-90403143D01*
X217305144Y-90403143D01*
X222162286Y-92403143D02*
X220448001Y-92403143D01*
X221305143Y-92403143D02*
X221305143Y-89403143D01*
X221019429Y-89831714D01*
X220733715Y-90117429D01*
X220448001Y-90260286D01*
X223448001Y-92117429D02*
X223590858Y-92260286D01*
X223448001Y-92403143D01*
X223305144Y-92260286D01*
X223448001Y-92117429D01*
X223448001Y-92403143D01*
X225448000Y-89403143D02*
X225733715Y-89403143D01*
X226019429Y-89546000D01*
X226162286Y-89688857D01*
X226305143Y-89974571D01*
X226448000Y-90546000D01*
X226448000Y-91260286D01*
X226305143Y-91831714D01*
X226162286Y-92117429D01*
X226019429Y-92260286D01*
X225733715Y-92403143D01*
X225448000Y-92403143D01*
X225162286Y-92260286D01*
X225019429Y-92117429D01*
X224876572Y-91831714D01*
X224733715Y-91260286D01*
X224733715Y-90546000D01*
X224876572Y-89974571D01*
X225019429Y-89688857D01*
X225162286Y-89546000D01*
X225448000Y-89403143D01*
D12*
X130429000Y-83947000D02*
X130429000Y-83439000D01*
X126619000Y-83947000D02*
X126619000Y-83439000D01*
X125349000Y-77978000D02*
X125349000Y-77470000D01*
X126619000Y-77597000D02*
X126619000Y-78105000D01*
X130429000Y-77597000D02*
X130429000Y-77978000D01*
X131699000Y-77470000D02*
X131699000Y-77978000D01*
X112395000Y-95885000D02*
X112395000Y-96393000D01*
X116205000Y-95885000D02*
X116205000Y-96393000D01*
X117475000Y-101854000D02*
X117475000Y-102362000D01*
X116205000Y-102235000D02*
X116205000Y-101727000D01*
X112395000Y-102235000D02*
X112395000Y-101854000D01*
X111125000Y-102362000D02*
X111125000Y-101854000D01*
D13*
X223774000Y-125984000D03*
D14*
X170180000Y-66548000D03*
D15*
X170180000Y-59048000D03*
D16*
X152146000Y-69596000D03*
D17*
X152146000Y-67596000D03*
D15*
X162052000Y-109728000D03*
X162052000Y-94728000D03*
D16*
X143764000Y-69596000D03*
D17*
X143764000Y-67596000D03*
D16*
X134112000Y-68580000D03*
D17*
X134112000Y-66580000D03*
D15*
X154940000Y-89916000D03*
X154940000Y-74916000D03*
X161036000Y-74930000D03*
X161036000Y-89930000D03*
D16*
X212344000Y-56896000D03*
D17*
X212344000Y-54896000D03*
D15*
X99568000Y-104648000D03*
X99568000Y-89648000D03*
X74930000Y-102870000D03*
X74930000Y-117870000D03*
X143256000Y-74676000D03*
X143256000Y-89676000D03*
D16*
X81280000Y-104775000D03*
D18*
X88900000Y-97155000D03*
X83820000Y-104775000D03*
X86360000Y-97155000D03*
X86360000Y-104775000D03*
X83820000Y-97155000D03*
X88900000Y-104775000D03*
X81280000Y-97155000D03*
D16*
X81280000Y-92329000D03*
D18*
X88900000Y-84709000D03*
X83820000Y-92329000D03*
X86360000Y-84709000D03*
X86360000Y-92329000D03*
X83820000Y-84709000D03*
X88900000Y-92329000D03*
X81280000Y-84709000D03*
D19*
X155956000Y-112014000D03*
X155956000Y-113284000D03*
D20*
X155956000Y-110744000D03*
D16*
X119380000Y-66294000D03*
D18*
X127000000Y-58674000D03*
X121920000Y-66294000D03*
X124460000Y-58674000D03*
X124460000Y-66294000D03*
X121920000Y-58674000D03*
X127000000Y-66294000D03*
X119380000Y-58674000D03*
D16*
X105664000Y-83820000D03*
D18*
X113284000Y-76200000D03*
X108204000Y-83820000D03*
X110744000Y-76200000D03*
X110744000Y-83820000D03*
X108204000Y-76200000D03*
X113284000Y-83820000D03*
X105664000Y-76200000D03*
D21*
X229820000Y-66675000D03*
D22*
X223520000Y-66675000D03*
D23*
X226620000Y-61595000D03*
D15*
X234320000Y-66675000D03*
D24*
X157480000Y-59690000D03*
D25*
X157480000Y-67310000D03*
D17*
X195580000Y-109728000D03*
D18*
X195580000Y-124968000D03*
D17*
X148844000Y-89916000D03*
D18*
X148844000Y-74676000D03*
D17*
X137922000Y-123698000D03*
D18*
X137922000Y-108458000D03*
D17*
X132080000Y-121285000D03*
D18*
X132080000Y-106045000D03*
D17*
X186944000Y-104648000D03*
D18*
X171704000Y-104648000D03*
D17*
X171704000Y-100584000D03*
D18*
X186944000Y-100584000D03*
D17*
X125984000Y-109728000D03*
D18*
X125984000Y-124968000D03*
D17*
X207264000Y-70612000D03*
D18*
X207264000Y-55372000D03*
D17*
X182118000Y-124968000D03*
D18*
X182118000Y-109728000D03*
D17*
X177292000Y-109728000D03*
D18*
X177292000Y-124968000D03*
D17*
X172720000Y-124968000D03*
D18*
X172720000Y-109728000D03*
D17*
X202692000Y-55372000D03*
D18*
X202692000Y-70612000D03*
D17*
X210058000Y-109728000D03*
D18*
X210058000Y-124968000D03*
D17*
X205232000Y-124968000D03*
D18*
X205232000Y-109728000D03*
D17*
X200406000Y-109728000D03*
D18*
X200406000Y-124968000D03*
D17*
X93980000Y-109728000D03*
D18*
X93980000Y-124968000D03*
D17*
X100584000Y-109728000D03*
D18*
X100584000Y-124968000D03*
D17*
X106680000Y-109728000D03*
D18*
X106680000Y-124968000D03*
D17*
X113284000Y-109728000D03*
D18*
X113284000Y-124968000D03*
D17*
X186690000Y-109728000D03*
D18*
X186690000Y-124968000D03*
D17*
X191008000Y-109728000D03*
D18*
X191008000Y-124968000D03*
D17*
X193548000Y-70612000D03*
D18*
X193548000Y-55372000D03*
D17*
X188976000Y-70612000D03*
D18*
X188976000Y-55372000D03*
D17*
X113792000Y-70612000D03*
D18*
X113792000Y-55372000D03*
D17*
X107696000Y-70612000D03*
D18*
X107696000Y-55372000D03*
D17*
X102108000Y-70612000D03*
D18*
X102108000Y-55372000D03*
D17*
X96520000Y-70612000D03*
D18*
X96520000Y-55372000D03*
D17*
X198120000Y-70612000D03*
D18*
X198120000Y-55372000D03*
D17*
X81280000Y-124968000D03*
D18*
X81280000Y-109728000D03*
D17*
X87884000Y-124968000D03*
D18*
X87884000Y-109728000D03*
D16*
X62230000Y-102489000D03*
D18*
X69850000Y-120269000D03*
X62230000Y-105029000D03*
X69850000Y-117729000D03*
X62230000Y-107569000D03*
X69850000Y-115189000D03*
X62230000Y-110109000D03*
X69850000Y-112649000D03*
X62230000Y-112649000D03*
X69850000Y-110109000D03*
X62230000Y-115189000D03*
X69850000Y-107569000D03*
X62230000Y-117729000D03*
X69850000Y-105029000D03*
X62230000Y-120269000D03*
X69850000Y-102489000D03*
D16*
X137668000Y-103632000D03*
D18*
X152908000Y-96012000D03*
X140208000Y-103632000D03*
X150368000Y-96012000D03*
X142748000Y-103632000D03*
X147828000Y-96012000D03*
X145288000Y-103632000D03*
X145288000Y-96012000D03*
X147828000Y-103632000D03*
X142748000Y-96012000D03*
X150368000Y-103632000D03*
X140208000Y-96012000D03*
X152908000Y-103632000D03*
X137668000Y-96012000D03*
D26*
X144098000Y-110666000D03*
X146598000Y-113166000D03*
X149098000Y-110666000D03*
D27*
X78145000Y-129620000D03*
X83145000Y-129620000D03*
X75645000Y-129620000D03*
X85645000Y-129620000D03*
D28*
X80645000Y-134620000D03*
D29*
X80645000Y-129620000D03*
X75645000Y-134620000D03*
X75645000Y-137120000D03*
X85645000Y-134620000D03*
X85645000Y-137120000D03*
D27*
X92115000Y-129620000D03*
X97115000Y-129620000D03*
X89615000Y-129620000D03*
X99615000Y-129620000D03*
D28*
X94615000Y-134620000D03*
D29*
X94615000Y-129620000D03*
X89615000Y-134620000D03*
X89615000Y-137120000D03*
X99615000Y-134620000D03*
X99615000Y-137120000D03*
D27*
X106085000Y-129620000D03*
X111085000Y-129620000D03*
X103585000Y-129620000D03*
X113585000Y-129620000D03*
D28*
X108585000Y-134620000D03*
D29*
X108585000Y-129620000D03*
X103585000Y-134620000D03*
X103585000Y-137120000D03*
X113585000Y-134620000D03*
X113585000Y-137120000D03*
D27*
X120055000Y-129620000D03*
X125055000Y-129620000D03*
X117555000Y-129620000D03*
X127555000Y-129620000D03*
D28*
X122555000Y-134620000D03*
D29*
X122555000Y-129620000D03*
X117555000Y-134620000D03*
X117555000Y-137120000D03*
X127555000Y-134620000D03*
X127555000Y-137120000D03*
D27*
X197525000Y-129620000D03*
X202525000Y-129620000D03*
X195025000Y-129620000D03*
X205025000Y-129620000D03*
D28*
X200025000Y-134620000D03*
D29*
X200025000Y-129620000D03*
X195025000Y-134620000D03*
X195025000Y-137120000D03*
X205025000Y-134620000D03*
X205025000Y-137120000D03*
D27*
X169585000Y-129620000D03*
X174585000Y-129620000D03*
X167085000Y-129620000D03*
X177085000Y-129620000D03*
D28*
X172085000Y-134620000D03*
D29*
X172085000Y-129620000D03*
X167085000Y-134620000D03*
X167085000Y-137120000D03*
X177085000Y-134620000D03*
X177085000Y-137120000D03*
D27*
X183555000Y-129620000D03*
X188555000Y-129620000D03*
X181055000Y-129620000D03*
X191055000Y-129620000D03*
D28*
X186055000Y-134620000D03*
D29*
X186055000Y-129620000D03*
X181055000Y-134620000D03*
X181055000Y-137120000D03*
X191055000Y-134620000D03*
X191055000Y-137120000D03*
D27*
X202652000Y-50720000D03*
X197652000Y-50720000D03*
X205152000Y-50720000D03*
X195152000Y-50720000D03*
D28*
X200152000Y-45720000D03*
D29*
X200152000Y-50720000D03*
X205152000Y-45720000D03*
X205152000Y-43220000D03*
X195152000Y-45720000D03*
X195152000Y-43220000D03*
D27*
X188428000Y-50720000D03*
X183428000Y-50720000D03*
X190928000Y-50720000D03*
X180928000Y-50720000D03*
D28*
X185928000Y-45720000D03*
D29*
X185928000Y-50720000D03*
X190928000Y-45720000D03*
X190928000Y-43220000D03*
X180928000Y-45720000D03*
X180928000Y-43220000D03*
D27*
X174712000Y-50720000D03*
X169712000Y-50720000D03*
X177212000Y-50720000D03*
X167212000Y-50720000D03*
D28*
X172212000Y-45720000D03*
D29*
X172212000Y-50720000D03*
X177212000Y-45720000D03*
X177212000Y-43220000D03*
X167212000Y-45720000D03*
X167212000Y-43220000D03*
D27*
X125055000Y-50720000D03*
X120055000Y-50720000D03*
X127555000Y-50720000D03*
X117555000Y-50720000D03*
D28*
X122555000Y-45720000D03*
D29*
X122555000Y-50720000D03*
X127555000Y-45720000D03*
X127555000Y-43220000D03*
X117555000Y-45720000D03*
X117555000Y-43220000D03*
D27*
X111212000Y-50720000D03*
X106212000Y-50720000D03*
X113712000Y-50720000D03*
X103712000Y-50720000D03*
D28*
X108712000Y-45720000D03*
D29*
X108712000Y-50720000D03*
X113712000Y-45720000D03*
X113712000Y-43220000D03*
X103712000Y-45720000D03*
X103712000Y-43220000D03*
D27*
X96988000Y-50720000D03*
X91988000Y-50720000D03*
X99488000Y-50720000D03*
X89488000Y-50720000D03*
D28*
X94488000Y-45720000D03*
D29*
X94488000Y-50720000D03*
X99488000Y-45720000D03*
X99488000Y-43220000D03*
X89488000Y-45720000D03*
X89488000Y-43220000D03*
D27*
X83272000Y-50720000D03*
X78272000Y-50720000D03*
X85772000Y-50720000D03*
X75772000Y-50720000D03*
D28*
X80772000Y-45720000D03*
D29*
X80772000Y-50720000D03*
X85772000Y-45720000D03*
X85772000Y-43220000D03*
X75772000Y-45720000D03*
X75772000Y-43220000D03*
D30*
X229235000Y-121285000D03*
D31*
X229235000Y-118745000D03*
D32*
X132969000Y-78072000D03*
X131699000Y-78072000D03*
X130429000Y-78072000D03*
X129159000Y-78072000D03*
X127889000Y-78072000D03*
X126619000Y-78072000D03*
X125349000Y-78072000D03*
X124079000Y-78072000D03*
X124079000Y-83472000D03*
X125349000Y-83472000D03*
X126619000Y-83472000D03*
X127889000Y-83472000D03*
X129159000Y-83472000D03*
X130429000Y-83472000D03*
X131699000Y-83472000D03*
X132969000Y-83472000D03*
D33*
X137414000Y-74422000D03*
D34*
X134874000Y-74422000D03*
X132334000Y-74422000D03*
X129794000Y-74422000D03*
X127254000Y-74422000D03*
X124714000Y-74422000D03*
X122174000Y-74422000D03*
X119634000Y-74422000D03*
X119634000Y-87122000D03*
X122174000Y-87122000D03*
X124714000Y-87122000D03*
X127254000Y-87122000D03*
X129794000Y-87122000D03*
X132334000Y-87122000D03*
X134874000Y-87122000D03*
X137414000Y-87122000D03*
D32*
X109855000Y-101760000D03*
X111125000Y-101760000D03*
X112395000Y-101760000D03*
X113665000Y-101760000D03*
X114935000Y-101760000D03*
X116205000Y-101760000D03*
X117475000Y-101760000D03*
X118745000Y-101760000D03*
X118745000Y-96360000D03*
X117475000Y-96360000D03*
X116205000Y-96360000D03*
X114935000Y-96360000D03*
X113665000Y-96360000D03*
X112395000Y-96360000D03*
X111125000Y-96360000D03*
X109855000Y-96360000D03*
D33*
X105410000Y-105410000D03*
D34*
X107950000Y-105410000D03*
X110490000Y-105410000D03*
X113030000Y-105410000D03*
X115570000Y-105410000D03*
X118110000Y-105410000D03*
X120650000Y-105410000D03*
X123190000Y-105410000D03*
X123190000Y-92710000D03*
X120650000Y-92710000D03*
X118110000Y-92710000D03*
X115570000Y-92710000D03*
X113030000Y-92710000D03*
X110490000Y-92710000D03*
X107950000Y-92710000D03*
X105410000Y-92710000D03*
D35*
X63216000Y-91440000D03*
X72360000Y-94488000D03*
D36*
X72360000Y-86888000D03*
D35*
X72360000Y-89428000D03*
X74900000Y-88158000D03*
X74900000Y-95758000D03*
D37*
X66000000Y-85618000D03*
X66000000Y-97048000D03*
D35*
X74900000Y-90698000D03*
X72360000Y-91968000D03*
X74900000Y-93238000D03*
D38*
X217932000Y-132588000D03*
D39*
X215392000Y-132588000D03*
X212852000Y-132588000D03*
D38*
X219202000Y-53848000D03*
D39*
X219202000Y-56388000D03*
X219202000Y-58928000D03*
D38*
X216408000Y-63246000D03*
D39*
X216408000Y-65786000D03*
X216408000Y-68326000D03*
D38*
X93472000Y-94234000D03*
D39*
X93472000Y-91694000D03*
X93472000Y-89154000D03*
D38*
X99060000Y-84201000D03*
D39*
X96520000Y-84201000D03*
X93980000Y-84201000D03*
D30*
X145288000Y-60960000D03*
D40*
X147828000Y-60960000D03*
X150368000Y-60960000D03*
D35*
X119888000Y-113284000D03*
X119888000Y-120784000D03*
D38*
X181864000Y-56896000D03*
D39*
X181864000Y-59436000D03*
X181864000Y-61976000D03*
X181864000Y-64516000D03*
D17*
X215138000Y-124968000D03*
D18*
X215138000Y-109728000D03*
D17*
X219964000Y-109728000D03*
D18*
X219964000Y-124968000D03*
D31*
X224028000Y-110998000D03*
X226568000Y-110998000D03*
D41*
X236728000Y-108458000D03*
X236728000Y-113538000D03*
D42*
X221742000Y-48006000D03*
X217932000Y-48006000D03*
D43*
X210312000Y-48006000D03*
D42*
X214122000Y-48006000D03*
D13*
X162052000Y-125984000D03*
X133858000Y-125984000D03*
X71882000Y-125984000D03*
X71882000Y-54102000D03*
X133858000Y-54102000D03*
X162052000Y-54102000D03*
X224028000Y-54102000D03*
D44*
X69850000Y-79756000D03*
X90170000Y-79756000D03*
D38*
X62230000Y-60706000D03*
D39*
X62230000Y-63246000D03*
X62230000Y-65786000D03*
X62230000Y-68326000D03*
X62230000Y-70866000D03*
X62230000Y-73406000D03*
X62230000Y-75946000D03*
X62230000Y-78486000D03*
D44*
X90170000Y-59436000D03*
X69850000Y-59436000D03*
D38*
X174244000Y-75692000D03*
D39*
X176784000Y-75692000D03*
X179324000Y-75692000D03*
X181864000Y-75692000D03*
X184404000Y-75692000D03*
D44*
X169164000Y-75692000D03*
X185674000Y-96012000D03*
D34*
X231775000Y-77470000D03*
X229235000Y-77470000D03*
X226695000Y-77470000D03*
X224155000Y-77470000D03*
X221615000Y-77470000D03*
X219075000Y-77470000D03*
X216535000Y-77470000D03*
X213995000Y-77470000D03*
X211455000Y-77470000D03*
X208915000Y-77470000D03*
X206375000Y-77470000D03*
X203835000Y-77470000D03*
X201295000Y-77470000D03*
X198755000Y-77470000D03*
X196215000Y-77470000D03*
X196215000Y-74930000D03*
X198755000Y-74930000D03*
X201295000Y-74930000D03*
X203835000Y-74930000D03*
X206375000Y-74930000D03*
X208915000Y-74930000D03*
X211455000Y-74930000D03*
X213995000Y-74930000D03*
X216535000Y-74930000D03*
X219075000Y-74930000D03*
X221615000Y-74930000D03*
X224155000Y-74930000D03*
X226695000Y-74930000D03*
X229235000Y-74930000D03*
X231775000Y-74930000D03*
X231775000Y-100330000D03*
X229235000Y-100330000D03*
X226695000Y-100330000D03*
X224155000Y-100330000D03*
X221615000Y-100330000D03*
X219075000Y-100330000D03*
X216535000Y-100330000D03*
X213995000Y-100330000D03*
X211455000Y-100330000D03*
X208915000Y-100330000D03*
X206375000Y-100330000D03*
X203835000Y-100330000D03*
X201295000Y-100330000D03*
X198755000Y-100330000D03*
D33*
X196215000Y-100330000D03*
X196215000Y-102870000D03*
D34*
X198755000Y-102870000D03*
X201295000Y-102870000D03*
X203835000Y-102870000D03*
X206375000Y-102870000D03*
X208915000Y-102870000D03*
X211455000Y-102870000D03*
X213995000Y-102870000D03*
X216535000Y-102870000D03*
X219075000Y-102870000D03*
X221615000Y-102870000D03*
X224155000Y-102870000D03*
X226695000Y-102870000D03*
X229235000Y-102870000D03*
X231775000Y-102870000D03*
D44*
X192151000Y-78486000D03*
X192151000Y-99314000D03*
D45*
X235839000Y-78486000D03*
X235839000Y-99314000D03*
D46*
X132588000Y-103378000D03*
D47*
X126238000Y-98044000D03*
X149098000Y-122174000D03*
X184658000Y-81788000D03*
X136652000Y-81788000D03*
X206502000Y-107442000D03*
X165100000Y-120650000D03*
X165100000Y-99314000D03*
X67310000Y-65532000D03*
X172720000Y-80772000D03*
X172720000Y-86614000D03*
X129032000Y-95758000D03*
X128778000Y-91186000D03*
X203962000Y-87757000D03*
X185674000Y-92202000D03*
X179832000Y-119634000D03*
X188468000Y-77978000D03*
X87884000Y-115570000D03*
X146304000Y-71120000D03*
X146304000Y-92202000D03*
D46*
X151384000Y-79502000D03*
D47*
X127889000Y-97028000D03*
X127889000Y-119507000D03*
X96520000Y-101092000D03*
X212344000Y-118618000D03*
D48*
X210439000Y-135763000D02*
X219329000Y-135763000D01*
X233172000Y-115570000D02*
X233172000Y-121920000D01*
X229235000Y-102870000D02*
X229235000Y-111633000D01*
X229235000Y-111633000D02*
X233172000Y-115570000D01*
X210439000Y-135763000D02*
X208026000Y-133350000D01*
X208026000Y-133350000D02*
X206756000Y-132080000D01*
X163322000Y-132080000D02*
X161798000Y-130556000D01*
X163322000Y-132080000D02*
X206756000Y-132080000D01*
X233172000Y-121920000D02*
X219329000Y-135763000D01*
X137668000Y-125476000D02*
X136144000Y-123952000D01*
X137668000Y-125476000D02*
X137668000Y-127000000D01*
X137922000Y-126746000D02*
X137668000Y-127000000D01*
X145152000Y-113166000D02*
X146598000Y-113166000D01*
X145152000Y-113166000D02*
X136144000Y-122174000D01*
X136144000Y-123952000D02*
X136144000Y-122174000D01*
X62230000Y-65786000D02*
X60833000Y-65786000D01*
X60833000Y-65786000D02*
X59944000Y-64897000D01*
X229235000Y-77470000D02*
X229235000Y-77851000D01*
X229235000Y-77851000D02*
X231902000Y-80518000D01*
X231902000Y-97663000D02*
X229235000Y-100330000D01*
X231902000Y-80518000D02*
X231902000Y-97663000D01*
X83820000Y-84709000D02*
X83820000Y-83566000D01*
X68707000Y-62738000D02*
X62865000Y-56896000D01*
X83820000Y-83566000D02*
X83820000Y-68580000D01*
X83820000Y-68580000D02*
X77978000Y-62738000D01*
X77978000Y-62738000D02*
X68707000Y-62738000D01*
X81280000Y-92329000D02*
X81280000Y-94615000D01*
X81280000Y-94615000D02*
X83820000Y-97155000D01*
X86360000Y-92329000D02*
X86360000Y-93726000D01*
X86360000Y-93726000D02*
X87376000Y-94742000D01*
X86360000Y-92329000D02*
X86360000Y-89027000D01*
X86360000Y-89027000D02*
X84963000Y-87630000D01*
X88900000Y-84709000D02*
X88900000Y-86741000D01*
X83820000Y-86487000D02*
X83820000Y-84709000D01*
X84963000Y-87630000D02*
X83820000Y-86487000D01*
X88011000Y-87630000D02*
X84963000Y-87630000D01*
X88900000Y-86741000D02*
X88011000Y-87630000D01*
X90297000Y-84328000D02*
X89916000Y-84709000D01*
X100584000Y-81915000D02*
X92710000Y-81915000D01*
X92710000Y-81915000D02*
X90297000Y-84328000D01*
X99568000Y-89648000D02*
X101600000Y-87616000D01*
X101600000Y-87616000D02*
X101600000Y-82931000D01*
X101600000Y-82931000D02*
X100584000Y-81915000D01*
X89916000Y-84709000D02*
X88900000Y-84709000D01*
X62230000Y-117729000D02*
X60706000Y-117729000D01*
X60706000Y-117729000D02*
X59944000Y-116967000D01*
X62230000Y-117729000D02*
X62230000Y-120269000D01*
X62230000Y-115189000D02*
X62230000Y-117729000D01*
X63216000Y-91440000D02*
X61468000Y-91440000D01*
X61468000Y-91440000D02*
X59944000Y-92964000D01*
X72360000Y-91968000D02*
X63744000Y-91968000D01*
X63744000Y-91968000D02*
X63216000Y-91440000D01*
X221742000Y-48006000D02*
X221742000Y-45466000D01*
X207264000Y-45466000D02*
X208026000Y-44704000D01*
X208026000Y-44704000D02*
X220980000Y-44704000D01*
X220980000Y-44704000D02*
X221742000Y-45466000D01*
X207264000Y-45466000D02*
X207264000Y-46482000D01*
X119888000Y-120784000D02*
X126880000Y-120784000D01*
X130048000Y-123952000D02*
X130048000Y-132080000D01*
X126880000Y-120784000D02*
X130048000Y-123952000D01*
X147828000Y-60960000D02*
X147828000Y-57150000D01*
X147828000Y-57150000D02*
X148590000Y-56388000D01*
X215900000Y-109728000D02*
X213868000Y-111760000D01*
X207264000Y-111760000D02*
X205232000Y-109728000D01*
X213868000Y-111760000D02*
X207264000Y-111760000D01*
X123190000Y-92710000D02*
X119540000Y-96360000D01*
X119540000Y-96360000D02*
X118745000Y-96360000D01*
X82550000Y-102870000D02*
X83820000Y-101600000D01*
X83820000Y-101600000D02*
X83820000Y-97155000D01*
X81280000Y-104775000D02*
X81280000Y-103886000D01*
X84455000Y-102870000D02*
X86360000Y-104775000D01*
X82296000Y-102870000D02*
X82550000Y-102870000D01*
X82550000Y-102870000D02*
X84455000Y-102870000D01*
X81280000Y-103886000D02*
X82296000Y-102870000D01*
X130429000Y-83472000D02*
X130429000Y-81661000D01*
X124079000Y-82169000D02*
X124079000Y-83472000D01*
X124714000Y-81534000D02*
X124079000Y-82169000D01*
X130302000Y-81534000D02*
X124714000Y-81534000D01*
X130429000Y-81661000D02*
X130302000Y-81534000D01*
X112395000Y-96360000D02*
X112395000Y-97917000D01*
X118745000Y-97663000D02*
X118745000Y-96360000D01*
X118110000Y-98298000D02*
X118745000Y-97663000D01*
X112776000Y-98298000D02*
X118110000Y-98298000D01*
X112395000Y-97917000D02*
X112776000Y-98298000D01*
X161036000Y-74930000D02*
X161036000Y-68192000D01*
X161036000Y-68192000D02*
X170180000Y-59048000D01*
X184404000Y-75692000D02*
X184150000Y-75946000D01*
X184150000Y-75946000D02*
X184150000Y-77216000D01*
X184150000Y-77216000D02*
X183388000Y-77978000D01*
X183388000Y-77978000D02*
X172974000Y-77978000D01*
X172974000Y-77978000D02*
X172212000Y-77216000D01*
X172212000Y-77216000D02*
X172212000Y-73660000D01*
X172212000Y-73660000D02*
X175006000Y-70104000D01*
X175006000Y-70104000D02*
X175006000Y-61976000D01*
X145288000Y-96012000D02*
X143256000Y-93980000D01*
X143256000Y-93980000D02*
X143256000Y-89676000D01*
X119634000Y-87122000D02*
X119634000Y-85852000D01*
X112268000Y-82296000D02*
X110744000Y-83820000D01*
X116078000Y-82296000D02*
X112268000Y-82296000D01*
X119634000Y-85852000D02*
X116078000Y-82296000D01*
X213677500Y-72707500D02*
X205803500Y-72707500D01*
X207264000Y-52324000D02*
X207264000Y-46482000D01*
X206756000Y-52832000D02*
X207264000Y-52324000D01*
X205740000Y-52832000D02*
X206756000Y-52832000D01*
X204978000Y-53594000D02*
X205740000Y-52832000D01*
X204978000Y-71882000D02*
X204978000Y-53594000D01*
X205803500Y-72707500D02*
X204978000Y-71882000D01*
X229235000Y-74930000D02*
X229235000Y-73787000D01*
X213741000Y-72644000D02*
X213677500Y-72707500D01*
X213677500Y-72707500D02*
X211455000Y-74930000D01*
X228092000Y-72644000D02*
X213741000Y-72644000D01*
X229235000Y-73787000D02*
X228092000Y-72644000D01*
X88900000Y-97155000D02*
X88900000Y-96266000D01*
X88900000Y-96266000D02*
X87376000Y-94742000D01*
X87376000Y-94742000D02*
X86233000Y-94742000D01*
X85852000Y-95123000D02*
X83820000Y-97155000D01*
X86233000Y-94742000D02*
X85852000Y-95123000D01*
X74930000Y-117870000D02*
X74930000Y-111125000D01*
X74930000Y-111125000D02*
X81280000Y-104775000D01*
X216217500Y-105727500D02*
X216662000Y-106172000D01*
X216662000Y-106172000D02*
X225933000Y-106172000D01*
X225933000Y-106172000D02*
X229235000Y-102870000D01*
X219075000Y-102870000D02*
X216217500Y-105727500D01*
X216217500Y-105727500D02*
X215773000Y-106172000D01*
X215773000Y-106172000D02*
X201676000Y-106172000D01*
X205232000Y-109728000D02*
X201676000Y-106172000D01*
X201676000Y-106172000D02*
X198755000Y-103251000D01*
X198755000Y-103251000D02*
X198755000Y-102870000D01*
X130429000Y-83472000D02*
X130429000Y-85217000D01*
X130429000Y-85217000D02*
X132334000Y-87122000D01*
X124079000Y-83472000D02*
X123284000Y-83472000D01*
X123284000Y-83472000D02*
X119634000Y-87122000D01*
X181864000Y-61976000D02*
X175006000Y-61976000D01*
X175006000Y-61976000D02*
X173108000Y-61976000D01*
X173108000Y-61976000D02*
X170180000Y-59048000D01*
X134112000Y-66580000D02*
X134112000Y-59436000D01*
X134112000Y-59436000D02*
X138938000Y-54610000D01*
X119380000Y-66294000D02*
X119380000Y-65278000D01*
X118618000Y-56896000D02*
X123698000Y-56896000D01*
X117602000Y-57912000D02*
X118618000Y-56896000D01*
X117602000Y-63500000D02*
X117602000Y-57912000D01*
X119380000Y-65278000D02*
X117602000Y-63500000D01*
X108204000Y-76200000D02*
X108204000Y-73406000D01*
X115570000Y-59182000D02*
X115570000Y-48260000D01*
X110998000Y-63754000D02*
X115570000Y-59182000D01*
X110998000Y-70612000D02*
X110998000Y-63754000D01*
X108204000Y-73406000D02*
X110998000Y-70612000D01*
X110490000Y-78486000D02*
X108966000Y-80010000D01*
X108966000Y-80010000D02*
X108966000Y-82042000D01*
X108966000Y-82042000D02*
X108712000Y-82296000D01*
X108712000Y-82296000D02*
X108712000Y-82042000D01*
X105664000Y-83820000D02*
X107442000Y-82042000D01*
X108966000Y-82042000D02*
X110744000Y-83820000D01*
X107442000Y-82042000D02*
X108712000Y-82042000D01*
X108712000Y-82042000D02*
X108966000Y-82042000D01*
X113284000Y-76200000D02*
X113284000Y-77216000D01*
X110490000Y-78486000D02*
X108204000Y-76200000D01*
X112014000Y-78486000D02*
X110490000Y-78486000D01*
X113284000Y-77216000D02*
X112014000Y-78486000D01*
X119380000Y-66294000D02*
X119380000Y-67056000D01*
X119380000Y-67056000D02*
X120650000Y-68326000D01*
X120650000Y-68326000D02*
X122428000Y-68326000D01*
X122428000Y-68326000D02*
X124460000Y-66294000D01*
X121920000Y-58674000D02*
X123698000Y-56896000D01*
X125222000Y-56896000D02*
X127000000Y-58674000D01*
X123698000Y-56896000D02*
X125222000Y-56896000D01*
X127000000Y-58674000D02*
X127000000Y-55880000D01*
X127000000Y-55880000D02*
X133604000Y-49276000D01*
X170180000Y-59048000D02*
X165354000Y-54222000D01*
X165354000Y-54222000D02*
X165354000Y-48260000D01*
X171704000Y-100584000D02*
X165848000Y-94728000D01*
X165848000Y-94728000D02*
X162052000Y-94728000D01*
X172720000Y-109728000D02*
X173736000Y-108712000D01*
X173736000Y-102616000D02*
X171704000Y-100584000D01*
X173736000Y-108712000D02*
X173736000Y-102616000D01*
X172720000Y-109728000D02*
X166116000Y-116332000D01*
X166116000Y-116332000D02*
X166116000Y-126746000D01*
X166116000Y-126746000D02*
X161798000Y-130556000D01*
X132842000Y-132080000D02*
X132842000Y-131826000D01*
X132842000Y-131826000D02*
X137922000Y-126746000D01*
X73152000Y-132080000D02*
X130048000Y-132080000D01*
X64008000Y-122936000D02*
X73152000Y-132080000D01*
X61976000Y-122936000D02*
X64008000Y-122936000D01*
X59944000Y-120904000D02*
X61976000Y-122936000D01*
X59944000Y-118872000D02*
X59944000Y-120904000D01*
X59944000Y-116967000D02*
X59944000Y-118872000D01*
X59944000Y-92964000D02*
X59944000Y-116967000D01*
X130048000Y-132080000D02*
X132842000Y-132080000D01*
X207264000Y-46482000D02*
X205740000Y-48260000D01*
X205740000Y-48260000D02*
X165354000Y-48260000D01*
X165354000Y-48260000D02*
X163068000Y-48260000D01*
X154940000Y-56388000D02*
X148590000Y-56388000D01*
X163068000Y-48260000D02*
X154940000Y-56388000D01*
X148590000Y-56388000D02*
X140716000Y-56388000D01*
X140716000Y-56388000D02*
X138938000Y-54610000D01*
X138938000Y-54610000D02*
X133604000Y-49276000D01*
X133604000Y-49276000D02*
X132588000Y-48260000D01*
X132588000Y-48260000D02*
X115570000Y-48260000D01*
X115570000Y-48260000D02*
X73152000Y-48260000D01*
X73152000Y-48260000D02*
X64516000Y-56896000D01*
X64516000Y-56896000D02*
X62865000Y-56896000D01*
X59944000Y-58420000D02*
X59944000Y-64897000D01*
X62865000Y-56896000D02*
X61468000Y-56896000D01*
X61468000Y-56896000D02*
X59944000Y-58420000D01*
X59944000Y-64897000D02*
X59944000Y-65532000D01*
X59944000Y-65532000D02*
X59944000Y-92964000D01*
X155702000Y-124460000D02*
X161798000Y-130556000D01*
X137922000Y-126746000D02*
X140208000Y-124460000D01*
X140208000Y-124460000D02*
X155702000Y-124460000D01*
X110490000Y-92710000D02*
X112395000Y-94615000D01*
X112395000Y-94615000D02*
X112395000Y-96360000D01*
X208915000Y-77470000D02*
X208788000Y-77470000D01*
X208788000Y-77470000D02*
X205994000Y-80264000D01*
X218821000Y-97536000D02*
X221615000Y-100330000D01*
X209550000Y-97536000D02*
X218821000Y-97536000D01*
X205994000Y-93980000D02*
X209550000Y-97536000D01*
X205994000Y-80264000D02*
X205994000Y-93980000D01*
X74900000Y-88158000D02*
X74900000Y-66645002D01*
X63754000Y-63373000D02*
X62230000Y-63373000D01*
X64262000Y-63881000D02*
X63754000Y-63373000D01*
X72135998Y-63881000D02*
X64262000Y-63881000D01*
X74900000Y-66645002D02*
X72135998Y-63881000D01*
X141478000Y-63246000D02*
X149606000Y-63246000D01*
X141478000Y-63246000D02*
X138430000Y-66294000D01*
X138430000Y-69850000D02*
X138430000Y-66294000D01*
X150368000Y-62484000D02*
X150368000Y-60960000D01*
X149606000Y-63246000D02*
X150368000Y-62484000D01*
X74930000Y-102870000D02*
X74295000Y-102235000D01*
X74295000Y-102235000D02*
X69850000Y-102235000D01*
X132588000Y-103378000D02*
X132588000Y-89408000D01*
X186944000Y-104648000D02*
X186944000Y-105918000D01*
X184658000Y-122428000D02*
X182118000Y-124968000D01*
X184658000Y-108204000D02*
X184658000Y-122428000D01*
X186944000Y-105918000D02*
X184658000Y-108204000D01*
X134874000Y-87122000D02*
X137414000Y-87122000D01*
X107950000Y-92710000D02*
X107950000Y-91694000D01*
X107950000Y-91694000D02*
X110236000Y-89408000D01*
X110236000Y-89408000D02*
X132588000Y-89408000D01*
X132588000Y-89408000D02*
X134874000Y-87122000D01*
X181864000Y-56896000D02*
X183642000Y-56896000D01*
X181864000Y-73660000D02*
X181864000Y-75692000D01*
X185166000Y-70358000D02*
X181864000Y-73660000D01*
X185166000Y-58420000D02*
X185166000Y-70358000D01*
X183642000Y-56896000D02*
X185166000Y-58420000D01*
X143256000Y-74676000D02*
X138430000Y-69850000D01*
X138430000Y-69850000D02*
X137160000Y-68580000D01*
X137160000Y-68580000D02*
X134112000Y-68580000D01*
X137414000Y-87122000D02*
X143256000Y-81280000D01*
X143256000Y-81280000D02*
X143256000Y-74676000D01*
X132969000Y-83472000D02*
X133764000Y-83472000D01*
X133764000Y-83472000D02*
X137414000Y-87122000D01*
X131699000Y-83472000D02*
X131699000Y-84709000D01*
X131699000Y-84709000D02*
X132334000Y-85344000D01*
X132334000Y-85344000D02*
X133096000Y-85344000D01*
X133096000Y-85344000D02*
X134874000Y-87122000D01*
X105410000Y-92710000D02*
X107950000Y-92710000D01*
X99568000Y-104648000D02*
X105410000Y-98806000D01*
X105410000Y-98806000D02*
X105410000Y-92710000D01*
X107950000Y-92710000D02*
X111125000Y-95885000D01*
X111125000Y-95885000D02*
X111125000Y-96360000D01*
X105410000Y-92710000D02*
X109060000Y-96360000D01*
X109060000Y-96360000D02*
X109855000Y-96360000D01*
D12*
X158242000Y-91694000D02*
X156464000Y-89916000D01*
X158242000Y-104648000D02*
X158242000Y-91694000D01*
X152908000Y-109982000D02*
X158242000Y-104648000D01*
X152908000Y-122428000D02*
X152908000Y-109982000D01*
X152146000Y-123190000D02*
X152908000Y-122428000D01*
X138430000Y-123190000D02*
X152146000Y-123190000D01*
X156464000Y-89916000D02*
X154940000Y-89916000D01*
X138430000Y-123190000D02*
X137922000Y-123698000D01*
X137668000Y-103632000D02*
X132080000Y-109220000D01*
X132080000Y-109220000D02*
X132080000Y-121285000D01*
X153924000Y-100838000D02*
X143002000Y-100838000D01*
X152654000Y-94234000D02*
X154432000Y-94234000D01*
X154432000Y-94234000D02*
X155194000Y-94996000D01*
X155194000Y-94996000D02*
X155194000Y-99568000D01*
X155194000Y-99568000D02*
X153924000Y-100838000D01*
X148844000Y-90424000D02*
X152654000Y-94234000D01*
X143002000Y-100838000D02*
X140208000Y-103632000D01*
X148844000Y-89916000D02*
X148844000Y-90424000D01*
X154940000Y-74916000D02*
X153176000Y-74916000D01*
X148844000Y-79248000D02*
X148844000Y-89916000D01*
X153176000Y-74916000D02*
X148844000Y-79248000D01*
X137922000Y-108458000D02*
X140208000Y-106172000D01*
X140208000Y-106172000D02*
X140208000Y-103632000D01*
X159258000Y-96012000D02*
X159258000Y-91708000D01*
X164338000Y-97028000D02*
X160274000Y-97028000D01*
X160274000Y-97028000D02*
X159258000Y-96012000D01*
X171704000Y-104394000D02*
X164338000Y-97028000D01*
X159258000Y-91708000D02*
X161036000Y-89930000D01*
X171704000Y-104648000D02*
X171704000Y-104394000D01*
X195580000Y-109728000D02*
X192786000Y-106934000D01*
X186944000Y-102108000D02*
X186944000Y-100584000D01*
X191770000Y-106934000D02*
X186944000Y-102108000D01*
X192786000Y-106934000D02*
X191770000Y-106934000D01*
D48*
X212344000Y-54896000D02*
X212312000Y-54864000D01*
X212312000Y-54864000D02*
X210566000Y-54864000D01*
X210566000Y-54864000D02*
X209042000Y-56388000D01*
X209042000Y-56388000D02*
X209042000Y-68834000D01*
X209042000Y-68834000D02*
X207264000Y-70612000D01*
D12*
X126238000Y-98044000D02*
X125984000Y-98298000D01*
X125984000Y-109728000D02*
X125984000Y-98298000D01*
D48*
X214122000Y-48006000D02*
X214122000Y-51308000D01*
X214630000Y-68326000D02*
X213868000Y-67564000D01*
X213868000Y-67564000D02*
X213868000Y-59690000D01*
X213868000Y-59690000D02*
X215900000Y-57658000D01*
X215900000Y-57658000D02*
X215900000Y-53086000D01*
X215900000Y-53086000D02*
X214122000Y-51308000D01*
X214630000Y-68326000D02*
X216408000Y-68326000D01*
X218694000Y-58928000D02*
X217170000Y-57404000D01*
X217170000Y-48768000D02*
X217170000Y-57404000D01*
X217170000Y-48768000D02*
X217932000Y-48006000D01*
X218694000Y-58928000D02*
X219202000Y-58928000D01*
D12*
X83820000Y-104775000D02*
X86741000Y-107696000D01*
X91948000Y-107696000D02*
X93980000Y-109728000D01*
X86741000Y-107696000D02*
X91948000Y-107696000D01*
X110490000Y-105410000D02*
X112395000Y-103505000D01*
X112395000Y-103505000D02*
X112395000Y-101760000D01*
X85645000Y-129620000D02*
X88011000Y-127254000D01*
X91694000Y-112014000D02*
X93980000Y-109728000D01*
X91694000Y-126492000D02*
X91694000Y-112014000D01*
X90932000Y-127254000D02*
X91694000Y-126492000D01*
X88011000Y-127254000D02*
X90932000Y-127254000D01*
X86360000Y-97155000D02*
X86360000Y-97790000D01*
X86360000Y-97790000D02*
X87630000Y-99060000D01*
X94742000Y-91694000D02*
X93472000Y-91694000D01*
X95250000Y-92202000D02*
X94742000Y-91694000D01*
X95250000Y-97536000D02*
X95250000Y-92202000D01*
X93726000Y-99060000D02*
X95250000Y-97536000D01*
X87630000Y-99060000D02*
X93726000Y-99060000D01*
X107950000Y-105410000D02*
X111125000Y-102235000D01*
X111125000Y-102235000D02*
X111125000Y-101760000D01*
X100584000Y-109728000D02*
X96774000Y-109728000D01*
X96774000Y-109728000D02*
X91821000Y-104775000D01*
X88900000Y-104775000D02*
X91821000Y-104775000D01*
X113030000Y-105410000D02*
X113665000Y-104775000D01*
X113665000Y-104775000D02*
X113665000Y-101760000D01*
X99615000Y-129620000D02*
X99615000Y-127809000D01*
X98298000Y-112014000D02*
X100584000Y-109728000D01*
X98298000Y-126492000D02*
X98298000Y-112014000D01*
X99615000Y-127809000D02*
X98298000Y-126492000D01*
X184150000Y-124714000D02*
X184150000Y-127000000D01*
X179197000Y-127508000D02*
X183642000Y-127508000D01*
X177085000Y-129620000D02*
X179197000Y-127508000D01*
X185674000Y-111252000D02*
X185674000Y-123190000D01*
X185674000Y-123190000D02*
X184150000Y-124714000D01*
X185674000Y-111252000D02*
X186690000Y-110236000D01*
X184150000Y-127000000D02*
X183642000Y-127508000D01*
X186690000Y-109728000D02*
X186690000Y-110236000D01*
X120650000Y-105410000D02*
X117475000Y-102235000D01*
X117475000Y-102235000D02*
X117475000Y-101760000D01*
X118110000Y-105410000D02*
X116205000Y-103505000D01*
X116205000Y-103505000D02*
X116205000Y-101760000D01*
X127555000Y-129620000D02*
X127555000Y-127047000D01*
X115316000Y-111760000D02*
X113284000Y-109728000D01*
X115316000Y-125476000D02*
X115316000Y-111760000D01*
X116332000Y-126492000D02*
X115316000Y-125476000D01*
X127000000Y-126492000D02*
X116332000Y-126492000D01*
X127555000Y-127047000D02*
X127000000Y-126492000D01*
X123190000Y-105410000D02*
X119540000Y-101760000D01*
X119540000Y-101760000D02*
X118745000Y-101760000D01*
X191055000Y-129620000D02*
X191055000Y-128571000D01*
X191055000Y-128571000D02*
X189992000Y-127508000D01*
X189992000Y-127508000D02*
X189738000Y-127508000D01*
X189738000Y-127508000D02*
X188976000Y-126746000D01*
X188976000Y-126746000D02*
X188976000Y-111760000D01*
X188976000Y-111760000D02*
X191008000Y-109728000D01*
X115570000Y-105410000D02*
X114935000Y-104775000D01*
X114935000Y-104775000D02*
X114935000Y-101760000D01*
X113585000Y-129620000D02*
X113585000Y-128063000D01*
X108712000Y-111760000D02*
X106680000Y-109728000D01*
X108712000Y-125730000D02*
X108712000Y-111760000D01*
X109474000Y-126492000D02*
X108712000Y-125730000D01*
X112014000Y-126492000D02*
X109474000Y-126492000D01*
X113585000Y-128063000D02*
X112014000Y-126492000D01*
X105410000Y-105410000D02*
X103886000Y-106934000D01*
X95758000Y-85598000D02*
X93980000Y-83820000D01*
X95758000Y-105664000D02*
X95758000Y-85598000D01*
X97028000Y-106934000D02*
X95758000Y-105664000D01*
X103886000Y-106934000D02*
X97028000Y-106934000D01*
X182118000Y-109728000D02*
X177292000Y-109728000D01*
X105410000Y-105410000D02*
X109060000Y-101760000D01*
X109060000Y-101760000D02*
X109855000Y-101760000D01*
X149098000Y-122174000D02*
X149098000Y-110666000D01*
X177292000Y-124968000D02*
X172720000Y-124968000D01*
X132334000Y-74422000D02*
X130429000Y-76327000D01*
X130429000Y-76327000D02*
X130429000Y-78072000D01*
X180928000Y-50720000D02*
X181102000Y-50894000D01*
X181102000Y-50894000D02*
X181102000Y-52832000D01*
X191008000Y-68072000D02*
X193548000Y-70612000D01*
X191008000Y-54102000D02*
X191008000Y-68072000D01*
X190500000Y-53594000D02*
X191008000Y-54102000D01*
X181864000Y-53594000D02*
X190500000Y-53594000D01*
X181102000Y-52832000D02*
X181864000Y-53594000D01*
X134874000Y-74422000D02*
X133096000Y-76200000D01*
X131699000Y-76835000D02*
X131699000Y-78072000D01*
X132334000Y-76200000D02*
X131699000Y-76835000D01*
X133096000Y-76200000D02*
X132334000Y-76200000D01*
X131699000Y-77597000D02*
X131699000Y-78072000D01*
X134874000Y-74422000D02*
X134874000Y-73914000D01*
X134874000Y-73914000D02*
X128778000Y-67818000D01*
X119380000Y-61214000D02*
X119380000Y-58674000D01*
X120142000Y-61976000D02*
X119380000Y-61214000D01*
X126746000Y-61976000D02*
X120142000Y-61976000D01*
X128778000Y-64008000D02*
X126746000Y-61976000D01*
X128778000Y-67818000D02*
X128778000Y-64008000D01*
X195152000Y-50720000D02*
X195834000Y-51402000D01*
X195834000Y-51402000D02*
X195834000Y-68326000D01*
X195834000Y-68326000D02*
X198120000Y-70612000D01*
X129794000Y-74422000D02*
X129159000Y-75057000D01*
X129159000Y-75057000D02*
X129159000Y-78072000D01*
X167212000Y-50720000D02*
X167212000Y-53420000D01*
X167212000Y-53420000D02*
X168148000Y-54356000D01*
X168148000Y-54356000D02*
X186182000Y-54356000D01*
X186182000Y-54356000D02*
X186690000Y-54864000D01*
X186690000Y-54864000D02*
X186690000Y-68326000D01*
X186690000Y-68326000D02*
X188976000Y-70612000D01*
X192024000Y-105664000D02*
X188468000Y-102108000D01*
X184658000Y-91694000D02*
X181864000Y-94488000D01*
X181864000Y-94488000D02*
X181864000Y-97028000D01*
X181864000Y-97028000D02*
X184150000Y-99314000D01*
X184150000Y-99314000D02*
X187960000Y-99314000D01*
X187960000Y-99314000D02*
X188468000Y-99822000D01*
X188468000Y-99822000D02*
X188468000Y-102108000D01*
X136652000Y-81788000D02*
X136652000Y-75184000D01*
X184658000Y-81788000D02*
X184658000Y-91694000D01*
X137414000Y-74422000D02*
X136652000Y-75184000D01*
X196342000Y-105664000D02*
X200406000Y-109728000D01*
X192024000Y-105664000D02*
X196342000Y-105664000D01*
X137414000Y-74422000D02*
X133764000Y-78072000D01*
X133764000Y-78072000D02*
X132969000Y-78072000D01*
X124460000Y-58674000D02*
X124460000Y-59944000D01*
X137414000Y-73152000D02*
X137414000Y-74422000D01*
X136652000Y-72390000D02*
X137414000Y-73152000D01*
X134620000Y-72390000D02*
X136652000Y-72390000D01*
X129540000Y-67310000D02*
X134620000Y-72390000D01*
X129540000Y-63500000D02*
X129540000Y-67310000D01*
X127000000Y-60960000D02*
X129540000Y-63500000D01*
X125476000Y-60960000D02*
X127000000Y-60960000D01*
X124460000Y-59944000D02*
X125476000Y-60960000D01*
X205025000Y-129620000D02*
X205025000Y-128063000D01*
X202438000Y-111760000D02*
X200406000Y-109728000D01*
X202438000Y-126746000D02*
X202438000Y-111760000D01*
X203200000Y-127508000D02*
X202438000Y-126746000D01*
X204470000Y-127508000D02*
X203200000Y-127508000D01*
X205025000Y-128063000D02*
X204470000Y-127508000D01*
X108204000Y-83820000D02*
X108204000Y-84582000D01*
X108204000Y-84582000D02*
X107188000Y-85598000D01*
X107188000Y-85598000D02*
X104140000Y-85598000D01*
X104140000Y-85598000D02*
X103378000Y-84836000D01*
X103378000Y-84836000D02*
X103378000Y-71882000D01*
X103378000Y-71882000D02*
X102108000Y-70612000D01*
X122174000Y-74422000D02*
X124206000Y-76454000D01*
X125349000Y-76835000D02*
X125349000Y-78072000D01*
X124968000Y-76454000D02*
X125349000Y-76835000D01*
X124206000Y-76454000D02*
X124968000Y-76454000D01*
X89488000Y-50720000D02*
X89488000Y-53166000D01*
X99568000Y-68072000D02*
X102108000Y-70612000D01*
X99568000Y-54864000D02*
X99568000Y-68072000D01*
X98298000Y-53594000D02*
X99568000Y-54864000D01*
X89916000Y-53594000D02*
X98298000Y-53594000D01*
X89488000Y-53166000D02*
X89916000Y-53594000D01*
X124714000Y-74422000D02*
X126619000Y-76327000D01*
X126619000Y-76327000D02*
X126619000Y-78072000D01*
X105664000Y-76200000D02*
X105664000Y-72644000D01*
X105664000Y-72644000D02*
X107696000Y-70612000D01*
X103712000Y-50720000D02*
X103712000Y-52912000D01*
X105156000Y-68072000D02*
X107696000Y-70612000D01*
X105156000Y-54356000D02*
X105156000Y-68072000D01*
X103712000Y-52912000D02*
X105156000Y-54356000D01*
X113284000Y-83820000D02*
X110998000Y-86106000D01*
X102616000Y-76708000D02*
X96520000Y-70612000D01*
X102616000Y-84836000D02*
X102616000Y-76708000D01*
X103886000Y-86106000D02*
X102616000Y-84836000D01*
X110998000Y-86106000D02*
X103886000Y-86106000D01*
X124079000Y-78072000D02*
X123284000Y-78072000D01*
X123284000Y-78072000D02*
X119634000Y-74422000D01*
X75772000Y-50720000D02*
X75772000Y-52912000D01*
X94234000Y-68326000D02*
X96520000Y-70612000D01*
X94234000Y-56388000D02*
X94234000Y-68326000D01*
X92710000Y-54864000D02*
X94234000Y-56388000D01*
X77724000Y-54864000D02*
X92710000Y-54864000D01*
X75772000Y-52912000D02*
X77724000Y-54864000D01*
X127254000Y-74422000D02*
X127889000Y-75057000D01*
X127889000Y-75057000D02*
X127889000Y-78072000D01*
X110744000Y-76200000D02*
X110744000Y-73660000D01*
X110744000Y-73660000D02*
X113792000Y-70612000D01*
X117555000Y-50720000D02*
X117555000Y-52879000D01*
X116586000Y-67818000D02*
X113792000Y-70612000D01*
X116586000Y-53848000D02*
X116586000Y-67818000D01*
X117555000Y-52879000D02*
X116586000Y-53848000D01*
X229235000Y-121285000D02*
X226441000Y-121285000D01*
X221426366Y-132588000D02*
X217932000Y-132588000D01*
X227076000Y-126938366D02*
X221426366Y-132588000D01*
X227076000Y-124968000D02*
X227076000Y-126938366D01*
X225298000Y-123190000D02*
X227076000Y-124968000D01*
X225298000Y-122428000D02*
X225298000Y-123190000D01*
X226441000Y-121285000D02*
X225298000Y-122428000D01*
X207010000Y-107950000D02*
X227584000Y-107950000D01*
X206502000Y-107442000D02*
X207010000Y-107950000D01*
X227711000Y-121285000D02*
X229235000Y-121285000D01*
X226568000Y-120142000D02*
X227711000Y-121285000D01*
X226568000Y-118618000D02*
X226568000Y-120142000D01*
X228346000Y-116840000D02*
X226568000Y-118618000D01*
X228346000Y-108712000D02*
X228346000Y-116840000D01*
X227584000Y-107950000D02*
X228346000Y-108712000D01*
X122174000Y-87122000D02*
X124206000Y-85090000D01*
X125349000Y-84709000D02*
X125349000Y-83472000D01*
X124968000Y-85090000D02*
X125349000Y-84709000D01*
X124206000Y-85090000D02*
X124968000Y-85090000D01*
X165100000Y-99314000D02*
X165100000Y-120650000D01*
X137668000Y-96012000D02*
X140208000Y-96012000D01*
X66802000Y-100076000D02*
X66802000Y-100046000D01*
X66802000Y-109347000D02*
X66802000Y-100076000D01*
X69850000Y-112395000D02*
X66802000Y-109347000D01*
X66802000Y-100046000D02*
X72360000Y-94488000D01*
X71471000Y-98044000D02*
X72614000Y-98044000D01*
X68961000Y-104775000D02*
X67818000Y-103632000D01*
X67818000Y-103632000D02*
X67818000Y-100203000D01*
X67818000Y-100203000D02*
X69977000Y-98044000D01*
X69977000Y-98044000D02*
X71471000Y-98044000D01*
X69850000Y-104775000D02*
X68961000Y-104775000D01*
X72614000Y-98044000D02*
X74900000Y-95758000D01*
X76962000Y-91694000D02*
X75966000Y-90698000D01*
X75966000Y-90698000D02*
X74900000Y-90698000D01*
X69850000Y-107315000D02*
X73787000Y-107315000D01*
X76962000Y-104140000D02*
X76962000Y-91694000D01*
X76962000Y-91694000D02*
X76962000Y-91617000D01*
X73787000Y-107315000D02*
X76962000Y-104140000D01*
D48*
X152908000Y-96012000D02*
X150368000Y-96012000D01*
D12*
X179324000Y-75692000D02*
X179324000Y-73406000D01*
X183896000Y-61468000D02*
X181864000Y-59436000D01*
X183896000Y-68834000D02*
X183896000Y-61468000D01*
X179324000Y-73406000D02*
X183896000Y-68834000D01*
X176784000Y-75692000D02*
X176784000Y-69596000D01*
X176784000Y-69596000D02*
X181864000Y-64516000D01*
D49*
X66294000Y-74676000D02*
X64897000Y-76073000D01*
X67310000Y-65532000D02*
X67310000Y-73660000D01*
X172720000Y-85598000D02*
X172720000Y-80772000D01*
X172720000Y-86614000D02*
X172720000Y-85598000D01*
X67310000Y-73660000D02*
X66294000Y-74676000D01*
X64897000Y-76073000D02*
X62230000Y-76073000D01*
X124714000Y-87122000D02*
X124968000Y-87122000D01*
X124968000Y-87122000D02*
X126619000Y-85471000D01*
X126619000Y-85471000D02*
X126619000Y-83472000D01*
X116205000Y-94615000D02*
X116205000Y-96360000D01*
X118110000Y-92710000D02*
X116205000Y-94615000D01*
X127254000Y-87122000D02*
X127889000Y-86487000D01*
X127889000Y-86487000D02*
X127889000Y-83472000D01*
X115570000Y-92710000D02*
X114935000Y-93345000D01*
X114935000Y-93345000D02*
X114935000Y-96360000D01*
X129794000Y-87122000D02*
X129159000Y-86487000D01*
X129159000Y-86487000D02*
X129159000Y-83472000D01*
X113030000Y-92710000D02*
X113665000Y-93345000D01*
X113665000Y-93345000D02*
X113665000Y-96360000D01*
D12*
X204978000Y-91948000D02*
X203771498Y-93154502D01*
X183959498Y-93154502D02*
X203771498Y-93154502D01*
X204978000Y-78832364D02*
X204978000Y-91948000D01*
X206375000Y-77470000D02*
X204978000Y-78832364D01*
X189230000Y-99314000D02*
X189230000Y-102108000D01*
X188722000Y-98806000D02*
X189230000Y-99314000D01*
X184404000Y-98806000D02*
X188722000Y-98806000D01*
X182372000Y-96774000D02*
X184404000Y-98806000D01*
X182372000Y-94742000D02*
X182372000Y-96774000D01*
X183959498Y-93154502D02*
X182372000Y-94742000D01*
X213106000Y-117602000D02*
X205232000Y-117602000D01*
X205232000Y-117602000D02*
X203454000Y-115824000D01*
X203454000Y-115824000D02*
X203454000Y-110236000D01*
X203454000Y-110236000D02*
X198374000Y-105156000D01*
X198374000Y-105156000D02*
X192278000Y-105156000D01*
X189230000Y-102108000D02*
X192278000Y-105156000D01*
X213868000Y-131064000D02*
X215392000Y-132588000D01*
X213868000Y-118618000D02*
X213868000Y-131064000D01*
X213106000Y-117602000D02*
X213868000Y-118618000D01*
X129032000Y-95758000D02*
X128778000Y-95504000D01*
X128778000Y-95504000D02*
X128778000Y-91186000D01*
X203835000Y-87630000D02*
X203835000Y-77470000D01*
X203962000Y-87757000D02*
X203835000Y-87630000D01*
X120650000Y-92710000D02*
X118872000Y-94488000D01*
X117475000Y-95123000D02*
X117475000Y-96360000D01*
X118110000Y-94488000D02*
X117475000Y-95123000D01*
X118872000Y-94488000D02*
X118110000Y-94488000D01*
D49*
X196215000Y-90805000D02*
X196215000Y-77470000D01*
X194564000Y-92456000D02*
X196215000Y-90805000D01*
X185928000Y-92456000D02*
X194564000Y-92456000D01*
X185674000Y-92202000D02*
X185928000Y-92456000D01*
X183642000Y-111506000D02*
X179832000Y-115316000D01*
X183642000Y-108712000D02*
X183642000Y-111506000D01*
X182626000Y-107696000D02*
X183642000Y-108712000D01*
X178562000Y-106680000D02*
X179324000Y-107696000D01*
X179324000Y-107696000D02*
X182626000Y-107696000D01*
X179832000Y-115316000D02*
X179832000Y-119634000D01*
X188468000Y-77978000D02*
X185928000Y-80264000D01*
X185928000Y-80264000D02*
X179578000Y-80264000D01*
X179578000Y-80264000D02*
X178562000Y-81026000D01*
X178562000Y-81026000D02*
X178562000Y-106680000D01*
X87884000Y-115570000D02*
X87884000Y-124968000D01*
X81280000Y-109728000D02*
X83058000Y-109728000D01*
X83058000Y-109728000D02*
X84328000Y-110998000D01*
X84328000Y-110998000D02*
X84328000Y-123952000D01*
X84328000Y-123952000D02*
X85344000Y-124968000D01*
X85344000Y-124968000D02*
X87884000Y-124968000D01*
D12*
X146304000Y-71120000D02*
X146304000Y-92202000D01*
D48*
X152908000Y-103632000D02*
X150368000Y-103632000D01*
X155448000Y-103632000D02*
X152908000Y-103632000D01*
X156718000Y-102362000D02*
X155448000Y-103632000D01*
X156718000Y-93472000D02*
X156718000Y-102362000D01*
X156210000Y-92964000D02*
X156718000Y-93472000D01*
X154432000Y-92964000D02*
X156210000Y-92964000D01*
X151384000Y-89916000D02*
X154432000Y-92964000D01*
X151384000Y-79502000D02*
X151384000Y-89916000D01*
D12*
X127889000Y-97028000D02*
X127889000Y-119507000D01*
X65278000Y-108458000D02*
X64389000Y-107569000D01*
X75946000Y-124968000D02*
X73914000Y-122936000D01*
X73914000Y-122936000D02*
X67310000Y-122936000D01*
X67310000Y-122936000D02*
X65278000Y-120904000D01*
X65278000Y-120904000D02*
X65278000Y-108458000D01*
X81280000Y-124968000D02*
X75946000Y-124968000D01*
X64389000Y-107569000D02*
X62230000Y-107569000D01*
X96520000Y-101092000D02*
X96520000Y-83820000D01*
D49*
X212852000Y-132588000D02*
X212852000Y-119126000D01*
X212852000Y-119126000D02*
X212344000Y-118618000D01*
D12*
X219964000Y-124968000D02*
X219964000Y-119888000D01*
X221488000Y-113538000D02*
X221488000Y-118364000D01*
X221488000Y-118364000D02*
X219964000Y-119888000D01*
X221488000Y-113538000D02*
X224028000Y-110998000D01*
X226568000Y-110998000D02*
X226568000Y-110236000D01*
X226568000Y-110236000D02*
X225298000Y-108966000D01*
X225298000Y-108966000D02*
X223012000Y-108966000D01*
X223012000Y-108966000D02*
X221742000Y-110236000D01*
X221742000Y-110236000D02*
X221742000Y-110744000D01*
X221742000Y-110744000D02*
X215138000Y-117348000D01*
X215138000Y-117348000D02*
X215138000Y-124968000D01*
M02*
