M48
;DRILL file {KiCad 4.0.7} date 12/21/17 09:23:27
;FORMAT={-:-/ absolute / metric / decimal}
FMAT,2
METRIC,TZ
T1C0.400
T2C0.500
T3C0.600
T4C0.762
T5C0.800
T6C0.900
T7C1.000
T8C1.020
T9C1.100
T10C1.200
T11C1.300
%
G90
G05
M71
T1
X67.31Y-65.532
X87.884Y-115.57
X96.52Y-101.092
X126.238Y-98.044
X127.889Y-97.028
X127.889Y-119.507
X128.778Y-91.186
X129.032Y-95.758
X136.652Y-81.788
X146.304Y-71.12
X146.304Y-92.202
X149.098Y-122.174
X165.1Y-99.314
X165.1Y-120.65
X172.72Y-80.772
X172.72Y-86.614
X179.832Y-119.634
X184.658Y-81.788
X185.674Y-92.202
X188.468Y-77.978
X203.962Y-87.757
X206.502Y-107.442
X212.344Y-118.618
T2
X132.588Y-103.378
X151.384Y-79.502
T3
X155.956Y-110.744
X155.956Y-112.014
X155.956Y-113.284
T4
X105.41Y-92.71
X105.41Y-105.41
X107.95Y-92.71
X107.95Y-105.41
X110.49Y-92.71
X110.49Y-105.41
X113.03Y-92.71
X113.03Y-105.41
X115.57Y-92.71
X115.57Y-105.41
X118.11Y-92.71
X118.11Y-105.41
X119.634Y-74.422
X119.634Y-87.122
X120.65Y-92.71
X120.65Y-105.41
X122.174Y-74.422
X122.174Y-87.122
X123.19Y-92.71
X123.19Y-105.41
X124.714Y-74.422
X124.714Y-87.122
X127.254Y-74.422
X127.254Y-87.122
X129.794Y-74.422
X129.794Y-87.122
X132.334Y-74.422
X132.334Y-87.122
X134.874Y-74.422
X134.874Y-87.122
X137.414Y-74.422
X137.414Y-87.122
X196.215Y-74.93
X196.215Y-77.47
X196.215Y-100.33
X196.215Y-102.87
X198.755Y-74.93
X198.755Y-77.47
X198.755Y-100.33
X198.755Y-102.87
X201.295Y-74.93
X201.295Y-77.47
X201.295Y-100.33
X201.295Y-102.87
X203.835Y-74.93
X203.835Y-77.47
X203.835Y-100.33
X203.835Y-102.87
X206.375Y-74.93
X206.375Y-77.47
X206.375Y-100.33
X206.375Y-102.87
X208.915Y-74.93
X208.915Y-77.47
X208.915Y-100.33
X208.915Y-102.87
X211.455Y-74.93
X211.455Y-77.47
X211.455Y-100.33
X211.455Y-102.87
X213.995Y-74.93
X213.995Y-77.47
X213.995Y-100.33
X213.995Y-102.87
X216.535Y-74.93
X216.535Y-77.47
X216.535Y-100.33
X216.535Y-102.87
X219.075Y-74.93
X219.075Y-77.47
X219.075Y-100.33
X219.075Y-102.87
X221.615Y-74.93
X221.615Y-77.47
X221.615Y-100.33
X221.615Y-102.87
X224.155Y-74.93
X224.155Y-77.47
X224.155Y-100.33
X224.155Y-102.87
X226.695Y-74.93
X226.695Y-77.47
X226.695Y-100.33
X226.695Y-102.87
X229.235Y-74.93
X229.235Y-77.47
X229.235Y-100.33
X229.235Y-102.87
X231.775Y-74.93
X231.775Y-77.47
X231.775Y-100.33
X231.775Y-102.87
T5
X62.23Y-102.489
X62.23Y-105.029
X62.23Y-107.569
X62.23Y-110.109
X62.23Y-112.649
X62.23Y-115.189
X62.23Y-117.729
X62.23Y-120.269
X69.85Y-102.489
X69.85Y-105.029
X69.85Y-107.569
X69.85Y-110.109
X69.85Y-112.649
X69.85Y-115.189
X69.85Y-117.729
X69.85Y-120.269
X81.28Y-84.709
X81.28Y-92.329
X81.28Y-97.155
X81.28Y-104.775
X81.28Y-109.728
X81.28Y-124.968
X83.82Y-84.709
X83.82Y-92.329
X83.82Y-97.155
X83.82Y-104.775
X86.36Y-84.709
X86.36Y-92.329
X86.36Y-97.155
X86.36Y-104.775
X87.884Y-109.728
X87.884Y-124.968
X88.9Y-84.709
X88.9Y-92.329
X88.9Y-97.155
X88.9Y-104.775
X93.98Y-109.728
X93.98Y-124.968
X96.52Y-55.372
X96.52Y-70.612
X100.584Y-109.728
X100.584Y-124.968
X102.108Y-55.372
X102.108Y-70.612
X105.664Y-76.2
X105.664Y-83.82
X106.68Y-109.728
X106.68Y-124.968
X107.696Y-55.372
X107.696Y-70.612
X108.204Y-76.2
X108.204Y-83.82
X110.744Y-76.2
X110.744Y-83.82
X113.284Y-76.2
X113.284Y-83.82
X113.284Y-109.728
X113.284Y-124.968
X113.792Y-55.372
X113.792Y-70.612
X119.38Y-58.674
X119.38Y-66.294
X121.92Y-58.674
X121.92Y-66.294
X124.46Y-58.674
X124.46Y-66.294
X125.984Y-109.728
X125.984Y-124.968
X127.Y-58.674
X127.Y-66.294
X132.08Y-106.045
X132.08Y-121.285
X134.112Y-66.58
X134.112Y-68.58
X137.668Y-96.012
X137.668Y-103.632
X137.922Y-108.458
X137.922Y-123.698
X140.208Y-96.012
X140.208Y-103.632
X142.748Y-96.012
X142.748Y-103.632
X143.764Y-67.596
X143.764Y-69.596
X145.288Y-96.012
X145.288Y-103.632
X147.828Y-96.012
X147.828Y-103.632
X148.844Y-74.676
X148.844Y-89.916
X150.368Y-96.012
X150.368Y-103.632
X152.146Y-67.596
X152.146Y-69.596
X152.908Y-96.012
X152.908Y-103.632
X171.704Y-100.584
X171.704Y-104.648
X172.72Y-109.728
X172.72Y-124.968
X177.292Y-109.728
X177.292Y-124.968
X182.118Y-109.728
X182.118Y-124.968
X186.69Y-109.728
X186.69Y-124.968
X186.944Y-100.584
X186.944Y-104.648
X188.976Y-55.372
X188.976Y-70.612
X191.008Y-109.728
X191.008Y-124.968
X193.548Y-55.372
X193.548Y-70.612
X195.58Y-109.728
X195.58Y-124.968
X198.12Y-55.372
X198.12Y-70.612
X200.406Y-109.728
X200.406Y-124.968
X202.692Y-55.372
X202.692Y-70.612
X205.232Y-109.728
X205.232Y-124.968
X207.264Y-55.372
X207.264Y-70.612
X210.058Y-109.728
X210.058Y-124.968
X212.344Y-54.896
X212.344Y-56.896
X215.138Y-109.728
X215.138Y-124.968
X219.964Y-109.728
X219.964Y-124.968
T6
X63.216Y-91.44
X72.36Y-86.888
X72.36Y-89.428
X72.36Y-91.968
X72.36Y-94.488
X74.9Y-88.158
X74.9Y-90.698
X74.9Y-93.238
X74.9Y-95.758
X229.235Y-118.745
X229.235Y-121.285
T7
X62.23Y-60.706
X62.23Y-63.246
X62.23Y-65.786
X62.23Y-68.326
X62.23Y-70.866
X62.23Y-73.406
X62.23Y-75.946
X62.23Y-78.486
X93.472Y-89.154
X93.472Y-91.694
X93.472Y-94.234
X93.98Y-84.201
X96.52Y-84.201
X99.06Y-84.201
X119.888Y-113.284
X119.888Y-120.784
X145.288Y-60.96
X147.828Y-60.96
X150.368Y-60.96
X174.244Y-75.692
X176.784Y-75.692
X179.324Y-75.692
X181.864Y-56.896
X181.864Y-59.436
X181.864Y-61.976
X181.864Y-64.516
X181.864Y-75.692
X184.404Y-75.692
X212.852Y-132.588
X215.392Y-132.588
X216.408Y-63.246
X216.408Y-65.786
X216.408Y-68.326
X217.932Y-132.588
X219.202Y-53.848
X219.202Y-56.388
X219.202Y-58.928
T9
X75.645Y-129.62
X75.772Y-50.72
X78.145Y-129.62
X78.272Y-50.72
X80.645Y-134.62
X80.772Y-45.72
X83.145Y-129.62
X83.272Y-50.72
X85.645Y-129.62
X85.772Y-50.72
X89.488Y-50.72
X89.615Y-129.62
X91.988Y-50.72
X92.115Y-129.62
X94.488Y-45.72
X94.615Y-134.62
X96.988Y-50.72
X97.115Y-129.62
X99.488Y-50.72
X99.615Y-129.62
X103.585Y-129.62
X103.712Y-50.72
X106.085Y-129.62
X106.212Y-50.72
X108.585Y-134.62
X108.712Y-45.72
X111.085Y-129.62
X111.212Y-50.72
X113.585Y-129.62
X113.712Y-50.72
X117.555Y-50.72
X117.555Y-129.62
X120.055Y-50.72
X120.055Y-129.62
X122.555Y-45.72
X122.555Y-134.62
X125.055Y-50.72
X125.055Y-129.62
X127.555Y-50.72
X127.555Y-129.62
X157.48Y-59.69
X157.48Y-67.31
X167.085Y-129.62
X167.212Y-50.72
X169.585Y-129.62
X169.712Y-50.72
X172.085Y-134.62
X172.212Y-45.72
X174.585Y-129.62
X174.712Y-50.72
X177.085Y-129.62
X177.212Y-50.72
X180.928Y-50.72
X181.055Y-129.62
X183.428Y-50.72
X183.555Y-129.62
X185.928Y-45.72
X186.055Y-134.62
X188.428Y-50.72
X188.555Y-129.62
X190.928Y-50.72
X191.055Y-129.62
X195.025Y-129.62
X195.152Y-50.72
X197.525Y-129.62
X197.652Y-50.72
X200.025Y-134.62
X200.152Y-45.72
X202.525Y-129.62
X202.652Y-50.72
X205.025Y-129.62
X205.152Y-50.72
X224.028Y-110.998
X226.568Y-110.998
T10
X74.93Y-102.87
X74.93Y-117.87
X99.568Y-89.648
X99.568Y-104.648
X143.256Y-74.676
X143.256Y-89.676
X154.94Y-74.916
X154.94Y-89.916
X161.036Y-74.93
X161.036Y-89.93
X162.052Y-94.728
X162.052Y-109.728
X170.18Y-59.048
X170.18Y-66.548
T11
X144.098Y-110.666
X146.598Y-113.166
X149.098Y-110.666
X210.312Y-48.006
X214.122Y-48.006
X217.932Y-48.006
X221.742Y-48.006
T8
X223.52Y-67.925G85X223.52Y-65.425
G05
X227.62Y-61.595G85X225.62Y-61.595
G05
X229.82Y-67.675G85X229.82Y-65.675
G05
T0
M30
