M48
;DRILL file {KiCad 4.0.7} date 12/21/17 09:23:27
;FORMAT={-:-/ absolute / metric / decimal}
FMAT,2
METRIC,TZ
T1C1.100
T2C1.200
T3C2.000
T4C2.100
T5C2.450
T6C3.250
%
G90
G05
M71
T1
X236.728Y-108.458
X236.728Y-113.538
T2
X75.645Y-134.62
X75.645Y-137.12
X75.772Y-43.22
X75.772Y-45.72
X80.645Y-129.62
X80.772Y-50.72
X85.645Y-134.62
X85.645Y-137.12
X85.772Y-43.22
X85.772Y-45.72
X89.488Y-43.22
X89.488Y-45.72
X89.615Y-134.62
X89.615Y-137.12
X94.488Y-50.72
X94.615Y-129.62
X99.488Y-43.22
X99.488Y-45.72
X99.615Y-134.62
X99.615Y-137.12
X103.585Y-134.62
X103.585Y-137.12
X103.712Y-43.22
X103.712Y-45.72
X108.585Y-129.62
X108.712Y-50.72
X113.585Y-134.62
X113.585Y-137.12
X113.712Y-43.22
X113.712Y-45.72
X117.555Y-43.22
X117.555Y-45.72
X117.555Y-134.62
X117.555Y-137.12
X122.555Y-50.72
X122.555Y-129.62
X127.555Y-43.22
X127.555Y-45.72
X127.555Y-134.62
X127.555Y-137.12
X167.085Y-134.62
X167.085Y-137.12
X167.212Y-43.22
X167.212Y-45.72
X172.085Y-129.62
X172.212Y-50.72
X177.085Y-134.62
X177.085Y-137.12
X177.212Y-43.22
X177.212Y-45.72
X180.928Y-43.22
X180.928Y-45.72
X181.055Y-134.62
X181.055Y-137.12
X185.928Y-50.72
X186.055Y-129.62
X190.928Y-43.22
X190.928Y-45.72
X191.055Y-134.62
X191.055Y-137.12
X195.025Y-134.62
X195.025Y-137.12
X195.152Y-43.22
X195.152Y-45.72
X200.025Y-129.62
X200.152Y-50.72
X205.025Y-134.62
X205.025Y-137.12
X205.152Y-43.22
X205.152Y-45.72
T3
X234.32Y-66.675
T4
X69.85Y-59.436
X69.85Y-79.756
X90.17Y-59.436
X90.17Y-79.756
X169.164Y-75.692
X185.674Y-96.012
X192.151Y-78.486
X192.151Y-99.314
X235.839Y-78.486
X235.839Y-99.314
T5
X71.882Y-54.102
X71.882Y-125.984
X133.858Y-54.102
X133.858Y-125.984
X162.052Y-54.102
X162.052Y-125.984
X223.774Y-125.984
X224.028Y-54.102
T6
X66.Y-85.618
X66.Y-97.048
T0
M30
