G04 #@! TF.FileFunction,Soldermask,Bot*
%FSLAX46Y46*%
G04 Gerber Fmt 4.6, Leading zero omitted, Abs format (unit mm)*
G04 Created by KiCad (PCBNEW 4.0.7) date 12/21/17 09:23:24*
%MOMM*%
%LPD*%
G01*
G04 APERTURE LIST*
%ADD10C,0.100000*%
%ADD11C,4.900000*%
%ADD12R,2.800000X2.800000*%
%ADD13C,2.800000*%
%ADD14R,2.000000X2.000000*%
%ADD15C,2.000000*%
%ADD16O,2.000000X2.000000*%
%ADD17O,1.900000X1.300000*%
%ADD18R,1.900000X1.300000*%
%ADD19O,4.200000X5.200000*%
%ADD20R,4.200000X5.200000*%
%ADD21O,5.200000X4.200000*%
%ADD22C,2.600000*%
%ADD23O,2.600000X2.600000*%
%ADD24C,2.740000*%
%ADD25R,2.200000X2.600000*%
%ADD26R,2.600000X2.600000*%
%ADD27R,2.200000X2.200000*%
%ADD28C,2.200000*%
%ADD29R,1.924000X1.924000*%
%ADD30C,1.924000*%
%ADD31C,2.400000*%
%ADD32R,2.400000X2.400000*%
%ADD33C,4.300000*%
%ADD34R,2.100000X2.100000*%
%ADD35O,2.100000X2.100000*%
%ADD36O,2.200000X2.200000*%
%ADD37C,2.100000*%
%ADD38C,2.500000*%
%ADD39R,2.500000X2.500000*%
%ADD40C,4.500000*%
%ADD41C,3.700000*%
G04 APERTURE END LIST*
D10*
D11*
X223774000Y-125984000D03*
D12*
X170180000Y-66548000D03*
D13*
X170180000Y-59048000D03*
D14*
X152146000Y-69596000D03*
D15*
X152146000Y-67596000D03*
D13*
X162052000Y-109728000D03*
X162052000Y-94728000D03*
D14*
X143764000Y-69596000D03*
D15*
X143764000Y-67596000D03*
D14*
X134112000Y-68580000D03*
D15*
X134112000Y-66580000D03*
D13*
X154940000Y-89916000D03*
X154940000Y-74916000D03*
X161036000Y-74930000D03*
X161036000Y-89930000D03*
D14*
X212344000Y-56896000D03*
D15*
X212344000Y-54896000D03*
D13*
X99568000Y-104648000D03*
X99568000Y-89648000D03*
X74930000Y-102870000D03*
X74930000Y-117870000D03*
X143256000Y-74676000D03*
X143256000Y-89676000D03*
D14*
X81280000Y-104775000D03*
D16*
X88900000Y-97155000D03*
X83820000Y-104775000D03*
X86360000Y-97155000D03*
X86360000Y-104775000D03*
X83820000Y-97155000D03*
X88900000Y-104775000D03*
X81280000Y-97155000D03*
D14*
X81280000Y-92329000D03*
D16*
X88900000Y-84709000D03*
X83820000Y-92329000D03*
X86360000Y-84709000D03*
X86360000Y-92329000D03*
X83820000Y-84709000D03*
X88900000Y-92329000D03*
X81280000Y-84709000D03*
D17*
X155956000Y-112014000D03*
X155956000Y-113284000D03*
D18*
X155956000Y-110744000D03*
D14*
X119380000Y-66294000D03*
D16*
X127000000Y-58674000D03*
X121920000Y-66294000D03*
X124460000Y-58674000D03*
X124460000Y-66294000D03*
X121920000Y-58674000D03*
X127000000Y-66294000D03*
X119380000Y-58674000D03*
D14*
X105664000Y-83820000D03*
D16*
X113284000Y-76200000D03*
X108204000Y-83820000D03*
X110744000Y-76200000D03*
X110744000Y-83820000D03*
X108204000Y-76200000D03*
X113284000Y-83820000D03*
X105664000Y-76200000D03*
D19*
X229820000Y-66675000D03*
D20*
X223520000Y-66675000D03*
D21*
X226620000Y-61595000D03*
D13*
X234320000Y-66675000D03*
D22*
X157480000Y-59690000D03*
D23*
X157480000Y-67310000D03*
D15*
X195580000Y-109728000D03*
D16*
X195580000Y-124968000D03*
D15*
X148844000Y-89916000D03*
D16*
X148844000Y-74676000D03*
D15*
X137922000Y-123698000D03*
D16*
X137922000Y-108458000D03*
D15*
X132080000Y-121285000D03*
D16*
X132080000Y-106045000D03*
D15*
X186944000Y-104648000D03*
D16*
X171704000Y-104648000D03*
D15*
X171704000Y-100584000D03*
D16*
X186944000Y-100584000D03*
D15*
X125984000Y-109728000D03*
D16*
X125984000Y-124968000D03*
D15*
X207264000Y-70612000D03*
D16*
X207264000Y-55372000D03*
D15*
X182118000Y-124968000D03*
D16*
X182118000Y-109728000D03*
D15*
X177292000Y-109728000D03*
D16*
X177292000Y-124968000D03*
D15*
X172720000Y-124968000D03*
D16*
X172720000Y-109728000D03*
D15*
X202692000Y-55372000D03*
D16*
X202692000Y-70612000D03*
D15*
X210058000Y-109728000D03*
D16*
X210058000Y-124968000D03*
D15*
X205232000Y-124968000D03*
D16*
X205232000Y-109728000D03*
D15*
X200406000Y-109728000D03*
D16*
X200406000Y-124968000D03*
D15*
X93980000Y-109728000D03*
D16*
X93980000Y-124968000D03*
D15*
X100584000Y-109728000D03*
D16*
X100584000Y-124968000D03*
D15*
X106680000Y-109728000D03*
D16*
X106680000Y-124968000D03*
D15*
X113284000Y-109728000D03*
D16*
X113284000Y-124968000D03*
D15*
X186690000Y-109728000D03*
D16*
X186690000Y-124968000D03*
D15*
X191008000Y-109728000D03*
D16*
X191008000Y-124968000D03*
D15*
X193548000Y-70612000D03*
D16*
X193548000Y-55372000D03*
D15*
X188976000Y-70612000D03*
D16*
X188976000Y-55372000D03*
D15*
X113792000Y-70612000D03*
D16*
X113792000Y-55372000D03*
D15*
X107696000Y-70612000D03*
D16*
X107696000Y-55372000D03*
D15*
X102108000Y-70612000D03*
D16*
X102108000Y-55372000D03*
D15*
X96520000Y-70612000D03*
D16*
X96520000Y-55372000D03*
D15*
X198120000Y-70612000D03*
D16*
X198120000Y-55372000D03*
D15*
X81280000Y-124968000D03*
D16*
X81280000Y-109728000D03*
D15*
X87884000Y-124968000D03*
D16*
X87884000Y-109728000D03*
D14*
X62230000Y-102489000D03*
D16*
X69850000Y-120269000D03*
X62230000Y-105029000D03*
X69850000Y-117729000D03*
X62230000Y-107569000D03*
X69850000Y-115189000D03*
X62230000Y-110109000D03*
X69850000Y-112649000D03*
X62230000Y-112649000D03*
X69850000Y-110109000D03*
X62230000Y-115189000D03*
X69850000Y-107569000D03*
X62230000Y-117729000D03*
X69850000Y-105029000D03*
X62230000Y-120269000D03*
X69850000Y-102489000D03*
D14*
X137668000Y-103632000D03*
D16*
X152908000Y-96012000D03*
X140208000Y-103632000D03*
X150368000Y-96012000D03*
X142748000Y-103632000D03*
X147828000Y-96012000D03*
X145288000Y-103632000D03*
X145288000Y-96012000D03*
X147828000Y-103632000D03*
X142748000Y-96012000D03*
X150368000Y-103632000D03*
X140208000Y-96012000D03*
X152908000Y-103632000D03*
X137668000Y-96012000D03*
D24*
X144098000Y-110666000D03*
X146598000Y-113166000D03*
X149098000Y-110666000D03*
D25*
X78145000Y-129620000D03*
X83145000Y-129620000D03*
X75645000Y-129620000D03*
X85645000Y-129620000D03*
D26*
X80645000Y-134620000D03*
D25*
X92115000Y-129620000D03*
X97115000Y-129620000D03*
X89615000Y-129620000D03*
X99615000Y-129620000D03*
D26*
X94615000Y-134620000D03*
D25*
X106085000Y-129620000D03*
X111085000Y-129620000D03*
X103585000Y-129620000D03*
X113585000Y-129620000D03*
D26*
X108585000Y-134620000D03*
D25*
X120055000Y-129620000D03*
X125055000Y-129620000D03*
X117555000Y-129620000D03*
X127555000Y-129620000D03*
D26*
X122555000Y-134620000D03*
D25*
X197525000Y-129620000D03*
X202525000Y-129620000D03*
X195025000Y-129620000D03*
X205025000Y-129620000D03*
D26*
X200025000Y-134620000D03*
D25*
X169585000Y-129620000D03*
X174585000Y-129620000D03*
X167085000Y-129620000D03*
X177085000Y-129620000D03*
D26*
X172085000Y-134620000D03*
D25*
X183555000Y-129620000D03*
X188555000Y-129620000D03*
X181055000Y-129620000D03*
X191055000Y-129620000D03*
D26*
X186055000Y-134620000D03*
D25*
X202652000Y-50720000D03*
X197652000Y-50720000D03*
X205152000Y-50720000D03*
X195152000Y-50720000D03*
D26*
X200152000Y-45720000D03*
D25*
X188428000Y-50720000D03*
X183428000Y-50720000D03*
X190928000Y-50720000D03*
X180928000Y-50720000D03*
D26*
X185928000Y-45720000D03*
D25*
X174712000Y-50720000D03*
X169712000Y-50720000D03*
X177212000Y-50720000D03*
X167212000Y-50720000D03*
D26*
X172212000Y-45720000D03*
D25*
X125055000Y-50720000D03*
X120055000Y-50720000D03*
X127555000Y-50720000D03*
X117555000Y-50720000D03*
D26*
X122555000Y-45720000D03*
D25*
X111212000Y-50720000D03*
X106212000Y-50720000D03*
X113712000Y-50720000D03*
X103712000Y-50720000D03*
D26*
X108712000Y-45720000D03*
D25*
X96988000Y-50720000D03*
X91988000Y-50720000D03*
X99488000Y-50720000D03*
X89488000Y-50720000D03*
D26*
X94488000Y-45720000D03*
D25*
X83272000Y-50720000D03*
X78272000Y-50720000D03*
X85772000Y-50720000D03*
X75772000Y-50720000D03*
D26*
X80772000Y-45720000D03*
D27*
X229235000Y-121285000D03*
D28*
X229235000Y-118745000D03*
D29*
X137414000Y-74422000D03*
D30*
X134874000Y-74422000D03*
X132334000Y-74422000D03*
X129794000Y-74422000D03*
X127254000Y-74422000D03*
X124714000Y-74422000D03*
X122174000Y-74422000D03*
X119634000Y-74422000D03*
X119634000Y-87122000D03*
X122174000Y-87122000D03*
X124714000Y-87122000D03*
X127254000Y-87122000D03*
X129794000Y-87122000D03*
X132334000Y-87122000D03*
X134874000Y-87122000D03*
X137414000Y-87122000D03*
D29*
X105410000Y-105410000D03*
D30*
X107950000Y-105410000D03*
X110490000Y-105410000D03*
X113030000Y-105410000D03*
X115570000Y-105410000D03*
X118110000Y-105410000D03*
X120650000Y-105410000D03*
X123190000Y-105410000D03*
X123190000Y-92710000D03*
X120650000Y-92710000D03*
X118110000Y-92710000D03*
X115570000Y-92710000D03*
X113030000Y-92710000D03*
X110490000Y-92710000D03*
X107950000Y-92710000D03*
X105410000Y-92710000D03*
D31*
X63216000Y-91440000D03*
X72360000Y-94488000D03*
D32*
X72360000Y-86888000D03*
D31*
X72360000Y-89428000D03*
X74900000Y-88158000D03*
X74900000Y-95758000D03*
D33*
X66000000Y-85618000D03*
X66000000Y-97048000D03*
D31*
X74900000Y-90698000D03*
X72360000Y-91968000D03*
X74900000Y-93238000D03*
D34*
X217932000Y-132588000D03*
D35*
X215392000Y-132588000D03*
X212852000Y-132588000D03*
D34*
X219202000Y-53848000D03*
D35*
X219202000Y-56388000D03*
X219202000Y-58928000D03*
D34*
X216408000Y-63246000D03*
D35*
X216408000Y-65786000D03*
X216408000Y-68326000D03*
D34*
X93472000Y-94234000D03*
D35*
X93472000Y-91694000D03*
X93472000Y-89154000D03*
D34*
X99060000Y-84201000D03*
D35*
X96520000Y-84201000D03*
X93980000Y-84201000D03*
D27*
X145288000Y-60960000D03*
D36*
X147828000Y-60960000D03*
X150368000Y-60960000D03*
D31*
X119888000Y-113284000D03*
X119888000Y-120784000D03*
D34*
X181864000Y-56896000D03*
D35*
X181864000Y-59436000D03*
X181864000Y-61976000D03*
X181864000Y-64516000D03*
D15*
X215138000Y-124968000D03*
D16*
X215138000Y-109728000D03*
D15*
X219964000Y-109728000D03*
D16*
X219964000Y-124968000D03*
D28*
X224028000Y-110998000D03*
X226568000Y-110998000D03*
D37*
X236728000Y-108458000D03*
X236728000Y-113538000D03*
D38*
X221742000Y-48006000D03*
X217932000Y-48006000D03*
D39*
X210312000Y-48006000D03*
D38*
X214122000Y-48006000D03*
D11*
X162052000Y-125984000D03*
X133858000Y-125984000D03*
X71882000Y-125984000D03*
X71882000Y-54102000D03*
X133858000Y-54102000D03*
X162052000Y-54102000D03*
X224028000Y-54102000D03*
D34*
X62230000Y-60706000D03*
D35*
X62230000Y-63246000D03*
X62230000Y-65786000D03*
X62230000Y-68326000D03*
X62230000Y-70866000D03*
X62230000Y-73406000D03*
X62230000Y-75946000D03*
X62230000Y-78486000D03*
D34*
X174244000Y-75692000D03*
D35*
X176784000Y-75692000D03*
X179324000Y-75692000D03*
X181864000Y-75692000D03*
X184404000Y-75692000D03*
D40*
X169164000Y-75692000D03*
X185674000Y-96012000D03*
D30*
X231775000Y-77470000D03*
X229235000Y-77470000D03*
X226695000Y-77470000D03*
X224155000Y-77470000D03*
X221615000Y-77470000D03*
X219075000Y-77470000D03*
X216535000Y-77470000D03*
X213995000Y-77470000D03*
X211455000Y-77470000D03*
X208915000Y-77470000D03*
X206375000Y-77470000D03*
X203835000Y-77470000D03*
X201295000Y-77470000D03*
X198755000Y-77470000D03*
X196215000Y-77470000D03*
X196215000Y-74930000D03*
X198755000Y-74930000D03*
X201295000Y-74930000D03*
X203835000Y-74930000D03*
X206375000Y-74930000D03*
X208915000Y-74930000D03*
X211455000Y-74930000D03*
X213995000Y-74930000D03*
X216535000Y-74930000D03*
X219075000Y-74930000D03*
X221615000Y-74930000D03*
X224155000Y-74930000D03*
X226695000Y-74930000D03*
X229235000Y-74930000D03*
X231775000Y-74930000D03*
X231775000Y-100330000D03*
X229235000Y-100330000D03*
X226695000Y-100330000D03*
X224155000Y-100330000D03*
X221615000Y-100330000D03*
X219075000Y-100330000D03*
X216535000Y-100330000D03*
X213995000Y-100330000D03*
X211455000Y-100330000D03*
X208915000Y-100330000D03*
X206375000Y-100330000D03*
X203835000Y-100330000D03*
X201295000Y-100330000D03*
X198755000Y-100330000D03*
D29*
X196215000Y-100330000D03*
X196215000Y-102870000D03*
D30*
X198755000Y-102870000D03*
X201295000Y-102870000D03*
X203835000Y-102870000D03*
X206375000Y-102870000D03*
X208915000Y-102870000D03*
X211455000Y-102870000D03*
X213995000Y-102870000D03*
X216535000Y-102870000D03*
X219075000Y-102870000D03*
X221615000Y-102870000D03*
X224155000Y-102870000D03*
X226695000Y-102870000D03*
X229235000Y-102870000D03*
X231775000Y-102870000D03*
D40*
X192151000Y-78486000D03*
X192151000Y-99314000D03*
D41*
X235839000Y-78486000D03*
X235839000Y-99314000D03*
M02*
