G04 #@! TF.FileFunction,Copper,L2,Bot,Signal*
%FSLAX46Y46*%
G04 Gerber Fmt 4.6, Leading zero omitted, Abs format (unit mm)*
G04 Created by KiCad (PCBNEW 4.0.7) date 12/21/17 09:23:24*
%MOMM*%
%LPD*%
G01*
G04 APERTURE LIST*
%ADD10C,0.100000*%
%ADD11C,4.500000*%
%ADD12R,2.400000X2.400000*%
%ADD13C,2.400000*%
%ADD14R,1.600000X1.600000*%
%ADD15C,1.600000*%
%ADD16O,1.600000X1.600000*%
%ADD17O,1.500000X0.900000*%
%ADD18R,1.500000X0.900000*%
%ADD19O,3.800000X4.800000*%
%ADD20R,3.800000X4.800000*%
%ADD21O,4.800000X3.800000*%
%ADD22C,2.200000*%
%ADD23O,2.200000X2.200000*%
%ADD24C,2.340000*%
%ADD25R,1.800000X2.200000*%
%ADD26R,2.200000X2.200000*%
%ADD27C,1.500000*%
%ADD28R,1.800000X1.800000*%
%ADD29C,1.800000*%
%ADD30R,1.524000X1.524000*%
%ADD31C,1.524000*%
%ADD32C,2.000000*%
%ADD33R,2.000000X2.000000*%
%ADD34C,3.900000*%
%ADD35R,1.700000X1.700000*%
%ADD36O,1.700000X1.700000*%
%ADD37O,1.800000X1.800000*%
%ADD38C,1.700000*%
%ADD39C,2.100000*%
%ADD40R,2.100000X2.100000*%
%ADD41C,4.100000*%
%ADD42C,3.300000*%
%ADD43C,1.000000*%
%ADD44C,0.600000*%
%ADD45C,0.508000*%
%ADD46C,0.254000*%
%ADD47C,0.381000*%
G04 APERTURE END LIST*
D10*
D11*
X223774000Y-125984000D03*
D12*
X170180000Y-66548000D03*
D13*
X170180000Y-59048000D03*
D14*
X152146000Y-69596000D03*
D15*
X152146000Y-67596000D03*
D13*
X162052000Y-109728000D03*
X162052000Y-94728000D03*
D14*
X143764000Y-69596000D03*
D15*
X143764000Y-67596000D03*
D14*
X134112000Y-68580000D03*
D15*
X134112000Y-66580000D03*
D13*
X154940000Y-89916000D03*
X154940000Y-74916000D03*
X161036000Y-74930000D03*
X161036000Y-89930000D03*
D14*
X212344000Y-56896000D03*
D15*
X212344000Y-54896000D03*
D13*
X99568000Y-104648000D03*
X99568000Y-89648000D03*
X74930000Y-102870000D03*
X74930000Y-117870000D03*
X143256000Y-74676000D03*
X143256000Y-89676000D03*
D14*
X81280000Y-104775000D03*
D16*
X88900000Y-97155000D03*
X83820000Y-104775000D03*
X86360000Y-97155000D03*
X86360000Y-104775000D03*
X83820000Y-97155000D03*
X88900000Y-104775000D03*
X81280000Y-97155000D03*
D14*
X81280000Y-92329000D03*
D16*
X88900000Y-84709000D03*
X83820000Y-92329000D03*
X86360000Y-84709000D03*
X86360000Y-92329000D03*
X83820000Y-84709000D03*
X88900000Y-92329000D03*
X81280000Y-84709000D03*
D17*
X155956000Y-112014000D03*
X155956000Y-113284000D03*
D18*
X155956000Y-110744000D03*
D14*
X119380000Y-66294000D03*
D16*
X127000000Y-58674000D03*
X121920000Y-66294000D03*
X124460000Y-58674000D03*
X124460000Y-66294000D03*
X121920000Y-58674000D03*
X127000000Y-66294000D03*
X119380000Y-58674000D03*
D14*
X105664000Y-83820000D03*
D16*
X113284000Y-76200000D03*
X108204000Y-83820000D03*
X110744000Y-76200000D03*
X110744000Y-83820000D03*
X108204000Y-76200000D03*
X113284000Y-83820000D03*
X105664000Y-76200000D03*
D19*
X229820000Y-66675000D03*
D20*
X223520000Y-66675000D03*
D21*
X226620000Y-61595000D03*
D13*
X234320000Y-66675000D03*
D22*
X157480000Y-59690000D03*
D23*
X157480000Y-67310000D03*
D15*
X195580000Y-109728000D03*
D16*
X195580000Y-124968000D03*
D15*
X148844000Y-89916000D03*
D16*
X148844000Y-74676000D03*
D15*
X137922000Y-123698000D03*
D16*
X137922000Y-108458000D03*
D15*
X132080000Y-121285000D03*
D16*
X132080000Y-106045000D03*
D15*
X186944000Y-104648000D03*
D16*
X171704000Y-104648000D03*
D15*
X171704000Y-100584000D03*
D16*
X186944000Y-100584000D03*
D15*
X125984000Y-109728000D03*
D16*
X125984000Y-124968000D03*
D15*
X207264000Y-70612000D03*
D16*
X207264000Y-55372000D03*
D15*
X182118000Y-124968000D03*
D16*
X182118000Y-109728000D03*
D15*
X177292000Y-109728000D03*
D16*
X177292000Y-124968000D03*
D15*
X172720000Y-124968000D03*
D16*
X172720000Y-109728000D03*
D15*
X202692000Y-55372000D03*
D16*
X202692000Y-70612000D03*
D15*
X210058000Y-109728000D03*
D16*
X210058000Y-124968000D03*
D15*
X205232000Y-124968000D03*
D16*
X205232000Y-109728000D03*
D15*
X200406000Y-109728000D03*
D16*
X200406000Y-124968000D03*
D15*
X93980000Y-109728000D03*
D16*
X93980000Y-124968000D03*
D15*
X100584000Y-109728000D03*
D16*
X100584000Y-124968000D03*
D15*
X106680000Y-109728000D03*
D16*
X106680000Y-124968000D03*
D15*
X113284000Y-109728000D03*
D16*
X113284000Y-124968000D03*
D15*
X186690000Y-109728000D03*
D16*
X186690000Y-124968000D03*
D15*
X191008000Y-109728000D03*
D16*
X191008000Y-124968000D03*
D15*
X193548000Y-70612000D03*
D16*
X193548000Y-55372000D03*
D15*
X188976000Y-70612000D03*
D16*
X188976000Y-55372000D03*
D15*
X113792000Y-70612000D03*
D16*
X113792000Y-55372000D03*
D15*
X107696000Y-70612000D03*
D16*
X107696000Y-55372000D03*
D15*
X102108000Y-70612000D03*
D16*
X102108000Y-55372000D03*
D15*
X96520000Y-70612000D03*
D16*
X96520000Y-55372000D03*
D15*
X198120000Y-70612000D03*
D16*
X198120000Y-55372000D03*
D15*
X81280000Y-124968000D03*
D16*
X81280000Y-109728000D03*
D15*
X87884000Y-124968000D03*
D16*
X87884000Y-109728000D03*
D14*
X62230000Y-102489000D03*
D16*
X69850000Y-120269000D03*
X62230000Y-105029000D03*
X69850000Y-117729000D03*
X62230000Y-107569000D03*
X69850000Y-115189000D03*
X62230000Y-110109000D03*
X69850000Y-112649000D03*
X62230000Y-112649000D03*
X69850000Y-110109000D03*
X62230000Y-115189000D03*
X69850000Y-107569000D03*
X62230000Y-117729000D03*
X69850000Y-105029000D03*
X62230000Y-120269000D03*
X69850000Y-102489000D03*
D14*
X137668000Y-103632000D03*
D16*
X152908000Y-96012000D03*
X140208000Y-103632000D03*
X150368000Y-96012000D03*
X142748000Y-103632000D03*
X147828000Y-96012000D03*
X145288000Y-103632000D03*
X145288000Y-96012000D03*
X147828000Y-103632000D03*
X142748000Y-96012000D03*
X150368000Y-103632000D03*
X140208000Y-96012000D03*
X152908000Y-103632000D03*
X137668000Y-96012000D03*
D24*
X144098000Y-110666000D03*
X146598000Y-113166000D03*
X149098000Y-110666000D03*
D25*
X78145000Y-129620000D03*
X83145000Y-129620000D03*
X75645000Y-129620000D03*
X85645000Y-129620000D03*
D26*
X80645000Y-134620000D03*
D27*
X80645000Y-129620000D03*
X75645000Y-134620000D03*
X75645000Y-137120000D03*
X85645000Y-134620000D03*
X85645000Y-137120000D03*
D25*
X92115000Y-129620000D03*
X97115000Y-129620000D03*
X89615000Y-129620000D03*
X99615000Y-129620000D03*
D26*
X94615000Y-134620000D03*
D27*
X94615000Y-129620000D03*
X89615000Y-134620000D03*
X89615000Y-137120000D03*
X99615000Y-134620000D03*
X99615000Y-137120000D03*
D25*
X106085000Y-129620000D03*
X111085000Y-129620000D03*
X103585000Y-129620000D03*
X113585000Y-129620000D03*
D26*
X108585000Y-134620000D03*
D27*
X108585000Y-129620000D03*
X103585000Y-134620000D03*
X103585000Y-137120000D03*
X113585000Y-134620000D03*
X113585000Y-137120000D03*
D25*
X120055000Y-129620000D03*
X125055000Y-129620000D03*
X117555000Y-129620000D03*
X127555000Y-129620000D03*
D26*
X122555000Y-134620000D03*
D27*
X122555000Y-129620000D03*
X117555000Y-134620000D03*
X117555000Y-137120000D03*
X127555000Y-134620000D03*
X127555000Y-137120000D03*
D25*
X197525000Y-129620000D03*
X202525000Y-129620000D03*
X195025000Y-129620000D03*
X205025000Y-129620000D03*
D26*
X200025000Y-134620000D03*
D27*
X200025000Y-129620000D03*
X195025000Y-134620000D03*
X195025000Y-137120000D03*
X205025000Y-134620000D03*
X205025000Y-137120000D03*
D25*
X169585000Y-129620000D03*
X174585000Y-129620000D03*
X167085000Y-129620000D03*
X177085000Y-129620000D03*
D26*
X172085000Y-134620000D03*
D27*
X172085000Y-129620000D03*
X167085000Y-134620000D03*
X167085000Y-137120000D03*
X177085000Y-134620000D03*
X177085000Y-137120000D03*
D25*
X183555000Y-129620000D03*
X188555000Y-129620000D03*
X181055000Y-129620000D03*
X191055000Y-129620000D03*
D26*
X186055000Y-134620000D03*
D27*
X186055000Y-129620000D03*
X181055000Y-134620000D03*
X181055000Y-137120000D03*
X191055000Y-134620000D03*
X191055000Y-137120000D03*
D25*
X202652000Y-50720000D03*
X197652000Y-50720000D03*
X205152000Y-50720000D03*
X195152000Y-50720000D03*
D26*
X200152000Y-45720000D03*
D27*
X200152000Y-50720000D03*
X205152000Y-45720000D03*
X205152000Y-43220000D03*
X195152000Y-45720000D03*
X195152000Y-43220000D03*
D25*
X188428000Y-50720000D03*
X183428000Y-50720000D03*
X190928000Y-50720000D03*
X180928000Y-50720000D03*
D26*
X185928000Y-45720000D03*
D27*
X185928000Y-50720000D03*
X190928000Y-45720000D03*
X190928000Y-43220000D03*
X180928000Y-45720000D03*
X180928000Y-43220000D03*
D25*
X174712000Y-50720000D03*
X169712000Y-50720000D03*
X177212000Y-50720000D03*
X167212000Y-50720000D03*
D26*
X172212000Y-45720000D03*
D27*
X172212000Y-50720000D03*
X177212000Y-45720000D03*
X177212000Y-43220000D03*
X167212000Y-45720000D03*
X167212000Y-43220000D03*
D25*
X125055000Y-50720000D03*
X120055000Y-50720000D03*
X127555000Y-50720000D03*
X117555000Y-50720000D03*
D26*
X122555000Y-45720000D03*
D27*
X122555000Y-50720000D03*
X127555000Y-45720000D03*
X127555000Y-43220000D03*
X117555000Y-45720000D03*
X117555000Y-43220000D03*
D25*
X111212000Y-50720000D03*
X106212000Y-50720000D03*
X113712000Y-50720000D03*
X103712000Y-50720000D03*
D26*
X108712000Y-45720000D03*
D27*
X108712000Y-50720000D03*
X113712000Y-45720000D03*
X113712000Y-43220000D03*
X103712000Y-45720000D03*
X103712000Y-43220000D03*
D25*
X96988000Y-50720000D03*
X91988000Y-50720000D03*
X99488000Y-50720000D03*
X89488000Y-50720000D03*
D26*
X94488000Y-45720000D03*
D27*
X94488000Y-50720000D03*
X99488000Y-45720000D03*
X99488000Y-43220000D03*
X89488000Y-45720000D03*
X89488000Y-43220000D03*
D25*
X83272000Y-50720000D03*
X78272000Y-50720000D03*
X85772000Y-50720000D03*
X75772000Y-50720000D03*
D26*
X80772000Y-45720000D03*
D27*
X80772000Y-50720000D03*
X85772000Y-45720000D03*
X85772000Y-43220000D03*
X75772000Y-45720000D03*
X75772000Y-43220000D03*
D28*
X229235000Y-121285000D03*
D29*
X229235000Y-118745000D03*
D30*
X137414000Y-74422000D03*
D31*
X134874000Y-74422000D03*
X132334000Y-74422000D03*
X129794000Y-74422000D03*
X127254000Y-74422000D03*
X124714000Y-74422000D03*
X122174000Y-74422000D03*
X119634000Y-74422000D03*
X119634000Y-87122000D03*
X122174000Y-87122000D03*
X124714000Y-87122000D03*
X127254000Y-87122000D03*
X129794000Y-87122000D03*
X132334000Y-87122000D03*
X134874000Y-87122000D03*
X137414000Y-87122000D03*
D30*
X105410000Y-105410000D03*
D31*
X107950000Y-105410000D03*
X110490000Y-105410000D03*
X113030000Y-105410000D03*
X115570000Y-105410000D03*
X118110000Y-105410000D03*
X120650000Y-105410000D03*
X123190000Y-105410000D03*
X123190000Y-92710000D03*
X120650000Y-92710000D03*
X118110000Y-92710000D03*
X115570000Y-92710000D03*
X113030000Y-92710000D03*
X110490000Y-92710000D03*
X107950000Y-92710000D03*
X105410000Y-92710000D03*
D32*
X63216000Y-91440000D03*
X72360000Y-94488000D03*
D33*
X72360000Y-86888000D03*
D32*
X72360000Y-89428000D03*
X74900000Y-88158000D03*
X74900000Y-95758000D03*
D34*
X66000000Y-85618000D03*
X66000000Y-97048000D03*
D32*
X74900000Y-90698000D03*
X72360000Y-91968000D03*
X74900000Y-93238000D03*
D35*
X217932000Y-132588000D03*
D36*
X215392000Y-132588000D03*
X212852000Y-132588000D03*
D35*
X219202000Y-53848000D03*
D36*
X219202000Y-56388000D03*
X219202000Y-58928000D03*
D35*
X216408000Y-63246000D03*
D36*
X216408000Y-65786000D03*
X216408000Y-68326000D03*
D35*
X93472000Y-94234000D03*
D36*
X93472000Y-91694000D03*
X93472000Y-89154000D03*
D35*
X99060000Y-84201000D03*
D36*
X96520000Y-84201000D03*
X93980000Y-84201000D03*
D28*
X145288000Y-60960000D03*
D37*
X147828000Y-60960000D03*
X150368000Y-60960000D03*
D32*
X119888000Y-113284000D03*
X119888000Y-120784000D03*
D35*
X181864000Y-56896000D03*
D36*
X181864000Y-59436000D03*
X181864000Y-61976000D03*
X181864000Y-64516000D03*
D15*
X215138000Y-124968000D03*
D16*
X215138000Y-109728000D03*
D15*
X219964000Y-109728000D03*
D16*
X219964000Y-124968000D03*
D29*
X224028000Y-110998000D03*
X226568000Y-110998000D03*
D38*
X236728000Y-108458000D03*
X236728000Y-113538000D03*
D39*
X221742000Y-48006000D03*
X217932000Y-48006000D03*
D40*
X210312000Y-48006000D03*
D39*
X214122000Y-48006000D03*
D11*
X162052000Y-125984000D03*
X133858000Y-125984000D03*
X71882000Y-125984000D03*
X71882000Y-54102000D03*
X133858000Y-54102000D03*
X162052000Y-54102000D03*
X224028000Y-54102000D03*
D41*
X69850000Y-79756000D03*
X90170000Y-79756000D03*
D35*
X62230000Y-60706000D03*
D36*
X62230000Y-63246000D03*
X62230000Y-65786000D03*
X62230000Y-68326000D03*
X62230000Y-70866000D03*
X62230000Y-73406000D03*
X62230000Y-75946000D03*
X62230000Y-78486000D03*
D41*
X90170000Y-59436000D03*
X69850000Y-59436000D03*
D35*
X174244000Y-75692000D03*
D36*
X176784000Y-75692000D03*
X179324000Y-75692000D03*
X181864000Y-75692000D03*
X184404000Y-75692000D03*
D41*
X169164000Y-75692000D03*
X185674000Y-96012000D03*
D31*
X231775000Y-77470000D03*
X229235000Y-77470000D03*
X226695000Y-77470000D03*
X224155000Y-77470000D03*
X221615000Y-77470000D03*
X219075000Y-77470000D03*
X216535000Y-77470000D03*
X213995000Y-77470000D03*
X211455000Y-77470000D03*
X208915000Y-77470000D03*
X206375000Y-77470000D03*
X203835000Y-77470000D03*
X201295000Y-77470000D03*
X198755000Y-77470000D03*
X196215000Y-77470000D03*
X196215000Y-74930000D03*
X198755000Y-74930000D03*
X201295000Y-74930000D03*
X203835000Y-74930000D03*
X206375000Y-74930000D03*
X208915000Y-74930000D03*
X211455000Y-74930000D03*
X213995000Y-74930000D03*
X216535000Y-74930000D03*
X219075000Y-74930000D03*
X221615000Y-74930000D03*
X224155000Y-74930000D03*
X226695000Y-74930000D03*
X229235000Y-74930000D03*
X231775000Y-74930000D03*
X231775000Y-100330000D03*
X229235000Y-100330000D03*
X226695000Y-100330000D03*
X224155000Y-100330000D03*
X221615000Y-100330000D03*
X219075000Y-100330000D03*
X216535000Y-100330000D03*
X213995000Y-100330000D03*
X211455000Y-100330000D03*
X208915000Y-100330000D03*
X206375000Y-100330000D03*
X203835000Y-100330000D03*
X201295000Y-100330000D03*
X198755000Y-100330000D03*
D30*
X196215000Y-100330000D03*
X196215000Y-102870000D03*
D31*
X198755000Y-102870000D03*
X201295000Y-102870000D03*
X203835000Y-102870000D03*
X206375000Y-102870000D03*
X208915000Y-102870000D03*
X211455000Y-102870000D03*
X213995000Y-102870000D03*
X216535000Y-102870000D03*
X219075000Y-102870000D03*
X221615000Y-102870000D03*
X224155000Y-102870000D03*
X226695000Y-102870000D03*
X229235000Y-102870000D03*
X231775000Y-102870000D03*
D41*
X192151000Y-78486000D03*
X192151000Y-99314000D03*
D42*
X235839000Y-78486000D03*
X235839000Y-99314000D03*
D43*
X132588000Y-103378000D03*
D44*
X126238000Y-98044000D03*
X149098000Y-122174000D03*
X184658000Y-81788000D03*
X136652000Y-81788000D03*
X206502000Y-107442000D03*
X165100000Y-120650000D03*
X165100000Y-99314000D03*
X67310000Y-65532000D03*
X172720000Y-80772000D03*
X172720000Y-86614000D03*
X129032000Y-95758000D03*
X128778000Y-91186000D03*
X203962000Y-87757000D03*
X185674000Y-92202000D03*
X179832000Y-119634000D03*
X188468000Y-77978000D03*
X87884000Y-115570000D03*
X146304000Y-71120000D03*
X146304000Y-92202000D03*
D43*
X151384000Y-79502000D03*
D44*
X127889000Y-97028000D03*
X127889000Y-119507000D03*
X96520000Y-101092000D03*
X212344000Y-118618000D03*
D45*
X157480000Y-67310000D02*
X155194000Y-69596000D01*
X155194000Y-69596000D02*
X152146000Y-69596000D01*
X210312000Y-48260000D02*
X210312000Y-50546000D01*
X170180000Y-63500000D02*
X170180000Y-66548000D01*
X179324000Y-54356000D02*
X170180000Y-63500000D01*
X183896000Y-54356000D02*
X179324000Y-54356000D01*
X187198000Y-57658000D02*
X183896000Y-54356000D01*
X199390000Y-57658000D02*
X187198000Y-57658000D01*
X200406000Y-56642000D02*
X199390000Y-57658000D01*
X200406000Y-54356000D02*
X200406000Y-56642000D01*
X201422000Y-53340000D02*
X200406000Y-54356000D01*
X207518000Y-53340000D02*
X201422000Y-53340000D01*
X210312000Y-50546000D02*
X207518000Y-53340000D01*
X157480000Y-67310000D02*
X169418000Y-67310000D01*
X169418000Y-67310000D02*
X170180000Y-66548000D01*
X229235000Y-100330000D02*
X229235000Y-102870000D01*
X219075000Y-100330000D02*
X219075000Y-102870000D01*
X198755000Y-100330000D02*
X198755000Y-102870000D01*
X229235000Y-74930000D02*
X229235000Y-77470000D01*
X211455000Y-74930000D02*
X211455000Y-77470000D01*
X146050000Y-67596000D02*
X146272000Y-67596000D01*
X147828000Y-66040000D02*
X147828000Y-60960000D01*
X146272000Y-67596000D02*
X147828000Y-66040000D01*
X152146000Y-67596000D02*
X146050000Y-67596000D01*
X146050000Y-67596000D02*
X143764000Y-67596000D01*
X110490000Y-92710000D02*
X110490000Y-84074000D01*
X110490000Y-84074000D02*
X110744000Y-83820000D01*
X145288000Y-96012000D02*
X146932604Y-97656604D01*
X159123396Y-97656604D02*
X162052000Y-94728000D01*
X146932604Y-97656604D02*
X159123396Y-97656604D01*
X86360000Y-104775000D02*
X86360000Y-108204000D01*
X86360000Y-108204000D02*
X87884000Y-109728000D01*
X155956000Y-113284000D02*
X146716000Y-113284000D01*
X146716000Y-113284000D02*
X146598000Y-113166000D01*
X74930000Y-117870000D02*
X72785000Y-120015000D01*
X72785000Y-120015000D02*
X69850000Y-120015000D01*
X75184000Y-87874000D02*
X75184000Y-86731000D01*
X69850000Y-84836000D02*
X70358000Y-84328000D01*
X70358000Y-84328000D02*
X74676000Y-84328000D01*
X74676000Y-84328000D02*
X75184000Y-84836000D01*
X75184000Y-84836000D02*
X75184000Y-86731000D01*
X69850000Y-84836000D02*
X69850000Y-102235000D01*
X75184000Y-87874000D02*
X74900000Y-88158000D01*
X79375000Y-62992000D02*
X78994000Y-63373000D01*
X78994000Y-63373000D02*
X62230000Y-63373000D01*
X79375000Y-62992000D02*
X78994000Y-63373000D01*
X78994000Y-63373000D02*
X128905000Y-63373000D01*
X128905000Y-63373000D02*
X130302000Y-64770000D01*
X130302000Y-64770000D02*
X130302000Y-67818000D01*
X130302000Y-67818000D02*
X131064000Y-68580000D01*
X134112000Y-68580000D02*
X131064000Y-68580000D01*
X219964000Y-112014000D02*
X210820000Y-112014000D01*
X210820000Y-112014000D02*
X210058000Y-111252000D01*
X221615000Y-102870000D02*
X221615000Y-104267000D01*
X219964000Y-112522000D02*
X219964000Y-112014000D01*
X219964000Y-112014000D02*
X219964000Y-109728000D01*
X220980000Y-113538000D02*
X219964000Y-112522000D01*
X227838000Y-113538000D02*
X220980000Y-113538000D01*
X228854000Y-112522000D02*
X227838000Y-113538000D01*
X228854000Y-108458000D02*
X228854000Y-112522000D01*
X228092000Y-107696000D02*
X228854000Y-108458000D01*
X225044000Y-107696000D02*
X228092000Y-107696000D01*
X221615000Y-104267000D02*
X225044000Y-107696000D01*
X181864000Y-75692000D02*
X181864000Y-76962000D01*
X208915000Y-80645000D02*
X208915000Y-77470000D01*
X207137000Y-82423000D02*
X208915000Y-80645000D01*
X187325000Y-82423000D02*
X207137000Y-82423000D01*
X181864000Y-76962000D02*
X187325000Y-82423000D01*
X145288000Y-103632000D02*
X143002000Y-105918000D01*
X135128000Y-105918000D02*
X132588000Y-103378000D01*
X143002000Y-105918000D02*
X135128000Y-105918000D01*
X157988000Y-107188000D02*
X157988000Y-105918000D01*
X160528000Y-109728000D02*
X157988000Y-107188000D01*
X162052000Y-109728000D02*
X160528000Y-109728000D01*
X147574000Y-101346000D02*
X145288000Y-103632000D01*
X153416000Y-101346000D02*
X147574000Y-101346000D01*
X157988000Y-105918000D02*
X153416000Y-101346000D01*
X162052000Y-109728000D02*
X169164000Y-109728000D01*
X184404000Y-107188000D02*
X186944000Y-104648000D01*
X171704000Y-107188000D02*
X184404000Y-107188000D01*
X169164000Y-109728000D02*
X171704000Y-107188000D01*
X231775000Y-77470000D02*
X231775000Y-90170000D01*
X231775000Y-90170000D02*
X221615000Y-100330000D01*
X135128000Y-116586000D02*
X78486000Y-116586000D01*
X78486000Y-116586000D02*
X74930000Y-113030000D01*
X74930000Y-113030000D02*
X74930000Y-102870000D01*
X210058000Y-111252000D02*
X210058000Y-117094000D01*
X136144000Y-117602000D02*
X135128000Y-116586000D01*
X209042000Y-117602000D02*
X136144000Y-117602000D01*
X210058000Y-117094000D02*
X209042000Y-117602000D01*
X210058000Y-109728000D02*
X210058000Y-111252000D01*
X231775000Y-74930000D02*
X231775000Y-77470000D01*
X208915000Y-74930000D02*
X208915000Y-77470000D01*
X221615000Y-102870000D02*
X221615000Y-100330000D01*
X157480000Y-59690000D02*
X156210000Y-58420000D01*
X145288000Y-59182000D02*
X145288000Y-60960000D01*
X146050000Y-58420000D02*
X145288000Y-59182000D01*
X156210000Y-58420000D02*
X146050000Y-58420000D01*
X140716000Y-62992000D02*
X142748000Y-60960000D01*
X140716000Y-68580000D02*
X141732000Y-69596000D01*
X143764000Y-69596000D02*
X141732000Y-69596000D01*
X140716000Y-68580000D02*
X140716000Y-62992000D01*
X142748000Y-60960000D02*
X145288000Y-60960000D01*
D46*
X132080000Y-121285000D02*
X128397000Y-124968000D01*
X128397000Y-124968000D02*
X125984000Y-124968000D01*
X132080000Y-121285000D02*
X135509000Y-121285000D01*
X135509000Y-121285000D02*
X137922000Y-123698000D01*
X132080000Y-106045000D02*
X134493000Y-108458000D01*
X134493000Y-108458000D02*
X137922000Y-108458000D01*
X171704000Y-104648000D02*
X158242000Y-104648000D01*
X146304000Y-100076000D02*
X142748000Y-103632000D01*
X153670000Y-100076000D02*
X146304000Y-100076000D01*
X158242000Y-104648000D02*
X153670000Y-100076000D01*
X171704000Y-104648000D02*
X182880000Y-104648000D01*
X182880000Y-104648000D02*
X186944000Y-100584000D01*
D45*
X214884000Y-56896000D02*
X217932000Y-53848000D01*
X212344000Y-56896000D02*
X214884000Y-56896000D01*
X217932000Y-53848000D02*
X219202000Y-53848000D01*
D46*
X125984000Y-109728000D02*
X123444000Y-109728000D01*
X123444000Y-109728000D02*
X119888000Y-113284000D01*
X97282000Y-98044000D02*
X96774000Y-97536000D01*
X97282000Y-98044000D02*
X126238000Y-98044000D01*
X96266000Y-89154000D02*
X93472000Y-89154000D01*
X96774000Y-89662000D02*
X96266000Y-89154000D01*
X96774000Y-97536000D02*
X96774000Y-89662000D01*
D45*
X232029000Y-72390000D02*
X217678000Y-72390000D01*
X230886000Y-123444000D02*
X226314000Y-123444000D01*
X226314000Y-123444000D02*
X224790000Y-121920000D01*
X224790000Y-121920000D02*
X198374000Y-121920000D01*
X198374000Y-121920000D02*
X197358000Y-122936000D01*
X232029000Y-72390000D02*
X233426000Y-73660000D01*
X233426000Y-73660000D02*
X233426000Y-120904000D01*
X233426000Y-120904000D02*
X230886000Y-123444000D01*
X195580000Y-124968000D02*
X197358000Y-122936000D01*
X216408000Y-71120000D02*
X216408000Y-68326000D01*
X217678000Y-72390000D02*
X216408000Y-71120000D01*
X213360000Y-60960000D02*
X215392000Y-58928000D01*
X192786000Y-60960000D02*
X184404000Y-69342000D01*
X161036000Y-69342000D02*
X157988000Y-72136000D01*
X157988000Y-72136000D02*
X151384000Y-72136000D01*
X148844000Y-74676000D02*
X151384000Y-72136000D01*
X184404000Y-69342000D02*
X161036000Y-69342000D01*
X192786000Y-60960000D02*
X213360000Y-60960000D01*
X215392000Y-58928000D02*
X219202000Y-58928000D01*
D46*
X93980000Y-109728000D02*
X96266000Y-107442000D01*
X108458000Y-107442000D02*
X110490000Y-105410000D01*
X96266000Y-107442000D02*
X108458000Y-107442000D01*
X101854000Y-101854000D02*
X102616000Y-102616000D01*
X101854000Y-101854000D02*
X87884000Y-101854000D01*
X87884000Y-101854000D02*
X86360000Y-100330000D01*
X86360000Y-97155000D02*
X86360000Y-100330000D01*
X106426000Y-106934000D02*
X107950000Y-105410000D01*
X103124000Y-106934000D02*
X106426000Y-106934000D01*
X102616000Y-106426000D02*
X103124000Y-106934000D01*
X102616000Y-102616000D02*
X102616000Y-106426000D01*
X100584000Y-109728000D02*
X102362000Y-107950000D01*
X110490000Y-107950000D02*
X113030000Y-105410000D01*
X102362000Y-107950000D02*
X110490000Y-107950000D01*
X86360000Y-84709000D02*
X86360000Y-87376000D01*
X112014000Y-114046000D02*
X120650000Y-105410000D01*
X79502000Y-88646000D02*
X85090000Y-88646000D01*
X85090000Y-88646000D02*
X86360000Y-87376000D01*
X77978000Y-90170000D02*
X79502000Y-88646000D01*
X77978000Y-113030000D02*
X77978000Y-90170000D01*
X78994000Y-114046000D02*
X77978000Y-113030000D01*
X112014000Y-114046000D02*
X78994000Y-114046000D01*
X138684000Y-115062000D02*
X184658000Y-115062000D01*
X138684000Y-115062000D02*
X137414000Y-113792000D01*
X137414000Y-113792000D02*
X128524000Y-113792000D01*
X128524000Y-113792000D02*
X128016000Y-113284000D01*
X128016000Y-113284000D02*
X128016000Y-105664000D01*
X128016000Y-105664000D02*
X126238000Y-103886000D01*
X126238000Y-103886000D02*
X122174000Y-103886000D01*
X120650000Y-105410000D02*
X122174000Y-103886000D01*
X186690000Y-113030000D02*
X186690000Y-109728000D01*
X184658000Y-115062000D02*
X186690000Y-113030000D01*
X186690000Y-109728000D02*
X186690000Y-109474000D01*
X88900000Y-92329000D02*
X88900000Y-91186000D01*
X109474000Y-113538000D02*
X113284000Y-109728000D01*
X79248000Y-113538000D02*
X109474000Y-113538000D01*
X78486000Y-112776000D02*
X79248000Y-113538000D01*
X78486000Y-90424000D02*
X78486000Y-112776000D01*
X79756000Y-89154000D02*
X78486000Y-90424000D01*
X86868000Y-89154000D02*
X79756000Y-89154000D01*
X88900000Y-91186000D02*
X86868000Y-89154000D01*
X113284000Y-109728000D02*
X113792000Y-109728000D01*
X113792000Y-109728000D02*
X118110000Y-105410000D01*
X81280000Y-84709000D02*
X81280000Y-87376000D01*
X78740000Y-114554000D02*
X114046000Y-114554000D01*
X81280000Y-87376000D02*
X80518000Y-88138000D01*
X80518000Y-88138000D02*
X79248000Y-88138000D01*
X79248000Y-88138000D02*
X77470000Y-89916000D01*
X77470000Y-89916000D02*
X77470000Y-113284000D01*
X77470000Y-113284000D02*
X78740000Y-114554000D01*
X114046000Y-114554000D02*
X123190000Y-105410000D01*
X137922000Y-115824000D02*
X136398000Y-114300000D01*
X137922000Y-115824000D02*
X184912000Y-115824000D01*
X191008000Y-109728000D02*
X184912000Y-115824000D01*
X126238000Y-105410000D02*
X123190000Y-105410000D01*
X127254000Y-106426000D02*
X126238000Y-105410000D01*
X127254000Y-113284000D02*
X127254000Y-106426000D01*
X128270000Y-114300000D02*
X127254000Y-113284000D01*
X136398000Y-114300000D02*
X128270000Y-114300000D01*
X83820000Y-92329000D02*
X83820000Y-91186000D01*
X103886000Y-113030000D02*
X106680000Y-110236000D01*
X80010000Y-89662000D02*
X82296000Y-89662000D01*
X78994000Y-90678000D02*
X80010000Y-89662000D01*
X78994000Y-112522000D02*
X78994000Y-90678000D01*
X79502000Y-113030000D02*
X78994000Y-112522000D01*
X103886000Y-113030000D02*
X79502000Y-113030000D01*
X83820000Y-91186000D02*
X82296000Y-89662000D01*
X106680000Y-109728000D02*
X106680000Y-110236000D01*
X106680000Y-109728000D02*
X107950000Y-108458000D01*
X112522000Y-108458000D02*
X115570000Y-105410000D01*
X107950000Y-108458000D02*
X112522000Y-108458000D01*
X141732000Y-108204000D02*
X138430000Y-111506000D01*
X158496000Y-110236000D02*
X156464000Y-108204000D01*
X156464000Y-108204000D02*
X141732000Y-108204000D01*
X158496000Y-112014000D02*
X158496000Y-110236000D01*
X129032000Y-103124000D02*
X128016000Y-102108000D01*
X129032000Y-108458000D02*
X129032000Y-103124000D01*
X132080000Y-111506000D02*
X129032000Y-108458000D01*
X138430000Y-111506000D02*
X132080000Y-111506000D01*
X128016000Y-102108000D02*
X108712000Y-102108000D01*
X108712000Y-102108000D02*
X105410000Y-105410000D01*
X155956000Y-112014000D02*
X158496000Y-112014000D01*
X158496000Y-112014000D02*
X175006000Y-112014000D01*
X175006000Y-112014000D02*
X177292000Y-109728000D01*
X172720000Y-124968000D02*
X166370000Y-124968000D01*
X162306000Y-122174000D02*
X149098000Y-122174000D01*
X166370000Y-124968000D02*
X162306000Y-122174000D01*
X155956000Y-110744000D02*
X155878000Y-110666000D01*
X155878000Y-110666000D02*
X149098000Y-110666000D01*
X165354000Y-70866000D02*
X185928000Y-70866000D01*
X165354000Y-70866000D02*
X164338000Y-71882000D01*
X164338000Y-71882000D02*
X164338000Y-75946000D01*
X164338000Y-75946000D02*
X162560000Y-77724000D01*
X162560000Y-77724000D02*
X134112000Y-77724000D01*
X134112000Y-77724000D02*
X132334000Y-75946000D01*
X132334000Y-74422000D02*
X132334000Y-75946000D01*
X191516000Y-68580000D02*
X193548000Y-70612000D01*
X188214000Y-68580000D02*
X191516000Y-68580000D01*
X185928000Y-70866000D02*
X188214000Y-68580000D01*
X127000000Y-66294000D02*
X127000000Y-67818000D01*
X132334000Y-73152000D02*
X132334000Y-74422000D01*
X127000000Y-67818000D02*
X132334000Y-73152000D01*
X164846000Y-70358000D02*
X185420000Y-70358000D01*
X134874000Y-76454000D02*
X135636000Y-77216000D01*
X135636000Y-77216000D02*
X162306000Y-77216000D01*
X162306000Y-77216000D02*
X163830000Y-75692000D01*
X163830000Y-75692000D02*
X163830000Y-71374000D01*
X163830000Y-71374000D02*
X164846000Y-70358000D01*
X134874000Y-74422000D02*
X134874000Y-76454000D01*
X195580000Y-68072000D02*
X198120000Y-70612000D01*
X187706000Y-68072000D02*
X195580000Y-68072000D01*
X185420000Y-70358000D02*
X187706000Y-68072000D01*
X165862000Y-71374000D02*
X188214000Y-71374000D01*
X188214000Y-71374000D02*
X188976000Y-70612000D01*
X129794000Y-74422000D02*
X129794000Y-72898000D01*
X121920000Y-68580000D02*
X121920000Y-66294000D01*
X122682000Y-69342000D02*
X121920000Y-68580000D01*
X126238000Y-69342000D02*
X122682000Y-69342000D01*
X129794000Y-72898000D02*
X126238000Y-69342000D01*
X129794000Y-75946000D02*
X129794000Y-74422000D01*
X132080000Y-78232000D02*
X129794000Y-75946000D01*
X162814000Y-78232000D02*
X132080000Y-78232000D01*
X164846000Y-76200000D02*
X162814000Y-78232000D01*
X165862000Y-71374000D02*
X164846000Y-72390000D01*
X164846000Y-72390000D02*
X164846000Y-76200000D01*
X136652000Y-81788000D02*
X184658000Y-81788000D01*
X102870000Y-72898000D02*
X102108000Y-72136000D01*
X122174000Y-74422000D02*
X120650000Y-72898000D01*
X102870000Y-72898000D02*
X120650000Y-72898000D01*
X102108000Y-72136000D02*
X102108000Y-70612000D01*
X107696000Y-70612000D02*
X107950000Y-70612000D01*
X107950000Y-70612000D02*
X109220000Y-71882000D01*
X124714000Y-72644000D02*
X124714000Y-74422000D01*
X123952000Y-71882000D02*
X124714000Y-72644000D01*
X109220000Y-71882000D02*
X123952000Y-71882000D01*
X119634000Y-74422000D02*
X103124000Y-74422000D01*
X99314000Y-70612000D02*
X96520000Y-70612000D01*
X103124000Y-74422000D02*
X99314000Y-70612000D01*
X113792000Y-70612000D02*
X126238000Y-70612000D01*
X127254000Y-71628000D02*
X127254000Y-74422000D01*
X126238000Y-70612000D02*
X127254000Y-71628000D01*
X186690000Y-91186000D02*
X189230000Y-93726000D01*
X124968000Y-90932000D02*
X123190000Y-90932000D01*
X124968000Y-90932000D02*
X126492000Y-92456000D01*
X132080000Y-91440000D02*
X151892000Y-91440000D01*
X130810000Y-92456000D02*
X132080000Y-91440000D01*
X126492000Y-92456000D02*
X130810000Y-92456000D01*
X153162000Y-92710000D02*
X168656000Y-92710000D01*
X168656000Y-92710000D02*
X170434000Y-91186000D01*
X170434000Y-91186000D02*
X186690000Y-91186000D01*
X151892000Y-91440000D02*
X153162000Y-92710000D01*
X122174000Y-87122000D02*
X122174000Y-89916000D01*
X122174000Y-89916000D02*
X123190000Y-90932000D01*
X189230000Y-93726000D02*
X189230000Y-105918000D01*
X190754000Y-107442000D02*
X206502000Y-107442000D01*
X189230000Y-105918000D02*
X190754000Y-107442000D01*
X141224000Y-99314000D02*
X165100000Y-99314000D01*
X140208000Y-98298000D02*
X141224000Y-99314000D01*
X140208000Y-96012000D02*
X140208000Y-98298000D01*
X224829414Y-118745000D02*
X229235000Y-118745000D01*
X222915655Y-120650000D02*
X224829414Y-118745000D01*
X165100000Y-120650000D02*
X222915655Y-120650000D01*
X76708000Y-96012000D02*
X76708000Y-93980000D01*
X72390000Y-107315000D02*
X72390000Y-100330000D01*
X72390000Y-100330000D02*
X76708000Y-96012000D01*
X69850000Y-109855000D02*
X72390000Y-107315000D01*
X75966000Y-93238000D02*
X74900000Y-93238000D01*
X76708000Y-93980000D02*
X75966000Y-93238000D01*
D45*
X229820000Y-66675000D02*
X229820000Y-69646000D01*
X218948000Y-65786000D02*
X216408000Y-65786000D01*
X219710000Y-66548000D02*
X218948000Y-65786000D01*
X219710000Y-69596000D02*
X219710000Y-66548000D01*
X220726000Y-70612000D02*
X219710000Y-69596000D01*
X228854000Y-70612000D02*
X220726000Y-70612000D01*
X229820000Y-69646000D02*
X228854000Y-70612000D01*
X229820000Y-66675000D02*
X229820000Y-68376000D01*
X223012000Y-57404000D02*
X221996000Y-56388000D01*
X223012000Y-60452000D02*
X223012000Y-57404000D01*
X220980000Y-62484000D02*
X223012000Y-60452000D01*
X220980000Y-65024000D02*
X220980000Y-62484000D01*
X222631000Y-66675000D02*
X220980000Y-65024000D01*
X221996000Y-56388000D02*
X219202000Y-56388000D01*
X223520000Y-66675000D02*
X222631000Y-66675000D01*
X59944000Y-81788000D02*
X61087000Y-82931000D01*
X92456000Y-100076000D02*
X91186000Y-98806000D01*
X91186000Y-98806000D02*
X91186000Y-83820000D01*
X133858000Y-99314000D02*
X133858000Y-95250000D01*
X133858000Y-95250000D02*
X135636000Y-93472000D01*
X135636000Y-93472000D02*
X149606000Y-93472000D01*
X149606000Y-93472000D02*
X150368000Y-94234000D01*
X150368000Y-94234000D02*
X150368000Y-96012000D01*
X133096000Y-100076000D02*
X133858000Y-99314000D01*
X92456000Y-100076000D02*
X133096000Y-100076000D01*
X90297000Y-82931000D02*
X61087000Y-82931000D01*
X91186000Y-83820000D02*
X90297000Y-82931000D01*
X102108000Y-55372000D02*
X104728000Y-55372000D01*
X104728000Y-55372000D02*
X106212000Y-53888000D01*
X96520000Y-55372000D02*
X94742000Y-55372000D01*
X91988000Y-52618000D02*
X91988000Y-50720000D01*
X94742000Y-55372000D02*
X91988000Y-52618000D01*
X107696000Y-55372000D02*
X106212000Y-53888000D01*
X106212000Y-53888000D02*
X106212000Y-50720000D01*
X113792000Y-55372000D02*
X107696000Y-55372000D01*
X198120000Y-55372000D02*
X198120000Y-51188000D01*
X198120000Y-51188000D02*
X197652000Y-50720000D01*
X193548000Y-55372000D02*
X188976000Y-55372000D01*
X188976000Y-55372000D02*
X188080000Y-55372000D01*
X188080000Y-55372000D02*
X183428000Y-50720000D01*
X200406000Y-124968000D02*
X202525000Y-127087000D01*
X202525000Y-127087000D02*
X202525000Y-129620000D01*
X191008000Y-124968000D02*
X188555000Y-127421000D01*
X188555000Y-127421000D02*
X188555000Y-129620000D01*
X186690000Y-124968000D02*
X188555000Y-126833000D01*
X188555000Y-126833000D02*
X188555000Y-129620000D01*
X113284000Y-124968000D02*
X111085000Y-127167000D01*
X111085000Y-127167000D02*
X111085000Y-129620000D01*
X93980000Y-124968000D02*
X93980000Y-126485000D01*
X93980000Y-126485000D02*
X97115000Y-129620000D01*
X100584000Y-124968000D02*
X106680000Y-124968000D01*
X106680000Y-124968000D02*
X106680000Y-125215000D01*
X106680000Y-125215000D02*
X111085000Y-129620000D01*
X78272000Y-50720000D02*
X78312000Y-50720000D01*
X78312000Y-50720000D02*
X80772000Y-48260000D01*
X80772000Y-45720000D02*
X80772000Y-46736000D01*
X80772000Y-46736000D02*
X79248000Y-48260000D01*
X91988000Y-50720000D02*
X91988000Y-49744000D01*
X91988000Y-49744000D02*
X93472000Y-48260000D01*
X94488000Y-45720000D02*
X91948000Y-48260000D01*
X91948000Y-48260000D02*
X92456000Y-48260000D01*
X106212000Y-50720000D02*
X106252000Y-50720000D01*
X106252000Y-50720000D02*
X108712000Y-48260000D01*
X108712000Y-45720000D02*
X108712000Y-46736000D01*
X108712000Y-46736000D02*
X107188000Y-48260000D01*
X120055000Y-50720000D02*
X120055000Y-50633000D01*
X120055000Y-50633000D02*
X122428000Y-48260000D01*
X122555000Y-45720000D02*
X122555000Y-46609000D01*
X122555000Y-46609000D02*
X120904000Y-48260000D01*
X169712000Y-50720000D02*
X169752000Y-50720000D01*
X169752000Y-50720000D02*
X172212000Y-48260000D01*
X172212000Y-45720000D02*
X172212000Y-46736000D01*
X172212000Y-46736000D02*
X170688000Y-48260000D01*
X185928000Y-45720000D02*
X183388000Y-48260000D01*
X183388000Y-48260000D02*
X183896000Y-48260000D01*
X183428000Y-50720000D02*
X183428000Y-50252000D01*
X183428000Y-50252000D02*
X185420000Y-48260000D01*
X197652000Y-50720000D02*
X197652000Y-50252000D01*
X197652000Y-50252000D02*
X199136000Y-48768000D01*
X199136000Y-48768000D02*
X199136000Y-48260000D01*
X80772000Y-132080000D02*
X80772000Y-131993000D01*
X80772000Y-131993000D02*
X83145000Y-129620000D01*
X94488000Y-132080000D02*
X94655000Y-132080000D01*
X94655000Y-132080000D02*
X97115000Y-129620000D01*
X108204000Y-132080000D02*
X108625000Y-132080000D01*
X108625000Y-132080000D02*
X111085000Y-129620000D01*
X125055000Y-129620000D02*
X124888000Y-129620000D01*
X124888000Y-129620000D02*
X122428000Y-132080000D01*
X202525000Y-129620000D02*
X202525000Y-129707000D01*
X202525000Y-129707000D02*
X200152000Y-132080000D01*
X200152000Y-132080000D02*
X197485000Y-132080000D01*
X174585000Y-129620000D02*
X174164000Y-129620000D01*
X174164000Y-129620000D02*
X171704000Y-132080000D01*
X188555000Y-129620000D02*
X188388000Y-129620000D01*
X188388000Y-129620000D02*
X185928000Y-132080000D01*
X186055000Y-134620000D02*
X186055000Y-133985000D01*
X186055000Y-133985000D02*
X187960000Y-132080000D01*
X172085000Y-134620000D02*
X172085000Y-133731000D01*
X172085000Y-133731000D02*
X173736000Y-132080000D01*
X122555000Y-134620000D02*
X122555000Y-133477000D01*
X122555000Y-133477000D02*
X123952000Y-132080000D01*
X108585000Y-134620000D02*
X108585000Y-133731000D01*
X108585000Y-133731000D02*
X110236000Y-132080000D01*
X94615000Y-134620000D02*
X94615000Y-133477000D01*
X94615000Y-133477000D02*
X96012000Y-132080000D01*
X80645000Y-134620000D02*
X80645000Y-133731000D01*
X80645000Y-133731000D02*
X82296000Y-132080000D01*
X59944000Y-120904000D02*
X61976000Y-122936000D01*
X59944000Y-81153000D02*
X59944000Y-81788000D01*
X61976000Y-122936000D02*
X64008000Y-122936000D01*
X59944000Y-81788000D02*
X59944000Y-120904000D01*
X73152000Y-132080000D02*
X80772000Y-132080000D01*
X64008000Y-122936000D02*
X73152000Y-132080000D01*
X200152000Y-47244000D02*
X199136000Y-48260000D01*
X199136000Y-48260000D02*
X185420000Y-48260000D01*
X185420000Y-48260000D02*
X183896000Y-48260000D01*
X183896000Y-48260000D02*
X172212000Y-48260000D01*
X172212000Y-48260000D02*
X170688000Y-48260000D01*
X170688000Y-48260000D02*
X163068000Y-48260000D01*
X163068000Y-48260000D02*
X154940000Y-56388000D01*
X154940000Y-56388000D02*
X140716000Y-56388000D01*
X140716000Y-56388000D02*
X132588000Y-48260000D01*
X132588000Y-48260000D02*
X122428000Y-48260000D01*
X122428000Y-48260000D02*
X120904000Y-48260000D01*
X120904000Y-48260000D02*
X108712000Y-48260000D01*
X108712000Y-48260000D02*
X107188000Y-48260000D01*
X107188000Y-48260000D02*
X93472000Y-48260000D01*
X93472000Y-48260000D02*
X92456000Y-48260000D01*
X92456000Y-48260000D02*
X80772000Y-48260000D01*
X80772000Y-48260000D02*
X79248000Y-48260000D01*
X79248000Y-48260000D02*
X73152000Y-48260000D01*
X73152000Y-48260000D02*
X64516000Y-56896000D01*
X64516000Y-56896000D02*
X61468000Y-56896000D01*
X61468000Y-56896000D02*
X59944000Y-58420000D01*
X59944000Y-58420000D02*
X59944000Y-81153000D01*
X200152000Y-45720000D02*
X200152000Y-47244000D01*
X197485000Y-132080000D02*
X200025000Y-134620000D01*
X163322000Y-132080000D02*
X171704000Y-132080000D01*
X171704000Y-132080000D02*
X173736000Y-132080000D01*
X173736000Y-132080000D02*
X185928000Y-132080000D01*
X185928000Y-132080000D02*
X187960000Y-132080000D01*
X187960000Y-132080000D02*
X197485000Y-132080000D01*
X155702000Y-124460000D02*
X163322000Y-132080000D01*
X140208000Y-124460000D02*
X155702000Y-124460000D01*
X132588000Y-132080000D02*
X140208000Y-124460000D01*
X82296000Y-132080000D02*
X94488000Y-132080000D01*
X94488000Y-132080000D02*
X96012000Y-132080000D01*
X96012000Y-132080000D02*
X108204000Y-132080000D01*
X108204000Y-132080000D02*
X110236000Y-132080000D01*
X110236000Y-132080000D02*
X122428000Y-132080000D01*
X122428000Y-132080000D02*
X123952000Y-132080000D01*
X123952000Y-132080000D02*
X132588000Y-132080000D01*
X80772000Y-132080000D02*
X82296000Y-132080000D01*
D46*
X199517000Y-81407000D02*
X189357000Y-81407000D01*
X201295000Y-79629000D02*
X199517000Y-81407000D01*
X201295000Y-77470000D02*
X201295000Y-79629000D01*
X185420000Y-73914000D02*
X185928000Y-74422000D01*
X185928000Y-74422000D02*
X185928000Y-77978000D01*
X185928000Y-77978000D02*
X189357000Y-81407000D01*
X181102000Y-73914000D02*
X179324000Y-75692000D01*
X181102000Y-73914000D02*
X185420000Y-73914000D01*
X201295000Y-74930000D02*
X201295000Y-77470000D01*
X198755000Y-74930000D02*
X198755000Y-77470000D01*
X198755000Y-74930000D02*
X198755000Y-74295000D01*
X198755000Y-74295000D02*
X197866000Y-73406000D01*
X197866000Y-73406000D02*
X179070000Y-73406000D01*
X179070000Y-73406000D02*
X176784000Y-75692000D01*
X226695000Y-74930000D02*
X226695000Y-77470000D01*
X224155000Y-74930000D02*
X224155000Y-77470000D01*
D47*
X221615000Y-78105000D02*
X213106000Y-86614000D01*
X213106000Y-86614000D02*
X173736000Y-86614000D01*
X89154000Y-65532000D02*
X67310000Y-65532000D01*
X104394000Y-80772000D02*
X89154000Y-65532000D01*
X172466000Y-80772000D02*
X104394000Y-80772000D01*
X172720000Y-80772000D02*
X172466000Y-80772000D01*
X173736000Y-86614000D02*
X172720000Y-86614000D01*
X221615000Y-74930000D02*
X221615000Y-77470000D01*
X221615000Y-77470000D02*
X221615000Y-78105000D01*
X62230000Y-73533000D02*
X92075000Y-73533000D01*
X139128502Y-90233498D02*
X125476000Y-90233498D01*
X124714000Y-89471498D02*
X125476000Y-90233498D01*
X124714000Y-87122000D02*
X124714000Y-89471498D01*
X141859000Y-85725000D02*
X141224000Y-86360000D01*
X141224000Y-86360000D02*
X141224000Y-88138000D01*
X141224000Y-88138000D02*
X139128502Y-90233498D01*
X212471000Y-85725000D02*
X141859000Y-85725000D01*
X219075000Y-79121000D02*
X212471000Y-85725000D01*
X219075000Y-79121000D02*
X219075000Y-77470000D01*
X92075000Y-73533000D02*
X101346000Y-82804000D01*
X114554000Y-96266000D02*
X118110000Y-92710000D01*
X103378000Y-96266000D02*
X114554000Y-96266000D01*
X101346000Y-94234000D02*
X103378000Y-96266000D01*
X101346000Y-82804000D02*
X101346000Y-94234000D01*
X219075000Y-74930000D02*
X219075000Y-77470000D01*
X118110000Y-92710000D02*
X118110000Y-90424000D01*
X122936000Y-85344000D02*
X124714000Y-87122000D01*
X119126000Y-85344000D02*
X122936000Y-85344000D01*
X117856000Y-86614000D02*
X119126000Y-85344000D01*
X117856000Y-90170000D02*
X117856000Y-86614000D01*
X118110000Y-90424000D02*
X117856000Y-90170000D01*
X62230000Y-70993000D02*
X91059000Y-70993000D01*
X91059000Y-70993000D02*
X102362000Y-82296000D01*
X113030000Y-95250000D02*
X115570000Y-92710000D01*
X103632000Y-95250000D02*
X113030000Y-95250000D01*
X102362000Y-93980000D02*
X103632000Y-95250000D01*
X102362000Y-82296000D02*
X102362000Y-93980000D01*
X216535000Y-80137000D02*
X211963000Y-84709000D01*
X211963000Y-84709000D02*
X141097000Y-84709000D01*
X216535000Y-77470000D02*
X216535000Y-80137000D01*
X127762000Y-89471496D02*
X138620504Y-89471496D01*
X127254000Y-88963496D02*
X127762000Y-89471496D01*
X127254000Y-88963496D02*
X127254000Y-87122000D01*
X140208000Y-87884000D02*
X138620504Y-89471496D01*
X140208000Y-85598000D02*
X140208000Y-87884000D01*
X141097000Y-84709000D02*
X140208000Y-85598000D01*
X216535000Y-74930000D02*
X216535000Y-77470000D01*
X115570000Y-92710000D02*
X115570000Y-87376000D01*
X115570000Y-87376000D02*
X118618000Y-84328000D01*
X118618000Y-84328000D02*
X124460000Y-84328000D01*
X124460000Y-84328000D02*
X127254000Y-87122000D01*
X62230000Y-68453000D02*
X90043000Y-68453000D01*
X90043000Y-68453000D02*
X103378000Y-81788000D01*
X111506000Y-94234000D02*
X113030000Y-92710000D01*
X104140000Y-94234000D02*
X111506000Y-94234000D01*
X103378000Y-93472000D02*
X104140000Y-94234000D01*
X103378000Y-81788000D02*
X103378000Y-93472000D01*
X210693000Y-83693000D02*
X140335000Y-83693000D01*
X213995000Y-77470000D02*
X213995000Y-80391000D01*
X213995000Y-80391000D02*
X210693000Y-83693000D01*
X130302000Y-88709494D02*
X138112506Y-88709494D01*
X129794000Y-88201494D02*
X130302000Y-88709494D01*
X129794000Y-88201494D02*
X129794000Y-87122000D01*
X139192000Y-87630000D02*
X138112506Y-88709494D01*
X139192000Y-84836000D02*
X139192000Y-87630000D01*
X140335000Y-83693000D02*
X139192000Y-84836000D01*
X213995000Y-74930000D02*
X213995000Y-77470000D01*
X113030000Y-92710000D02*
X113030000Y-88392000D01*
X125984000Y-83312000D02*
X129794000Y-87122000D01*
X118110000Y-83312000D02*
X125984000Y-83312000D01*
X113030000Y-88392000D02*
X118110000Y-83312000D01*
D46*
X206375000Y-74930000D02*
X206375000Y-77470000D01*
X203835000Y-74930000D02*
X203835000Y-77470000D01*
X142621000Y-87757000D02*
X143510000Y-87757000D01*
X143510000Y-87757000D02*
X203962000Y-87757000D01*
X120650000Y-93980000D02*
X122428000Y-95758000D01*
X122428000Y-95758000D02*
X129032000Y-95758000D01*
X128778000Y-91186000D02*
X129032000Y-90932000D01*
X129032000Y-90932000D02*
X139446000Y-90932000D01*
X139446000Y-90932000D02*
X141986000Y-88392000D01*
X141986000Y-88392000D02*
X142621000Y-87757000D01*
X120650000Y-92710000D02*
X120650000Y-93980000D01*
D47*
X142748000Y-97282000D02*
X144018000Y-98552000D01*
X142748000Y-96012000D02*
X142748000Y-97282000D01*
X164338000Y-97536000D02*
X176530000Y-97536000D01*
X163322000Y-98552000D02*
X164338000Y-97536000D01*
X144018000Y-98552000D02*
X163322000Y-98552000D01*
X181864000Y-92202000D02*
X185674000Y-92202000D01*
X176530000Y-97536000D02*
X181864000Y-92202000D01*
X135636000Y-119634000D02*
X134620000Y-118618000D01*
X179832000Y-119634000D02*
X135636000Y-119634000D01*
X77978000Y-118618000D02*
X74422000Y-122174000D01*
X74422000Y-122174000D02*
X68072000Y-122174000D01*
X68072000Y-122174000D02*
X66548000Y-120650000D01*
X66548000Y-120650000D02*
X66548000Y-116332000D01*
X66548000Y-116332000D02*
X67945000Y-114935000D01*
X67945000Y-114935000D02*
X69850000Y-114935000D01*
X134620000Y-118618000D02*
X77978000Y-118618000D01*
X191516000Y-74930000D02*
X188468000Y-77978000D01*
X196215000Y-74930000D02*
X191516000Y-74930000D01*
X196215000Y-74930000D02*
X196215000Y-77470000D01*
D46*
X231775000Y-100330000D02*
X231775000Y-102870000D01*
X224155000Y-100330000D02*
X224155000Y-102870000D01*
X216535000Y-100330000D02*
X216535000Y-102870000D01*
X213995000Y-100330000D02*
X213995000Y-102870000D01*
X211455000Y-100330000D02*
X211455000Y-102870000D01*
X208915000Y-100330000D02*
X208915000Y-102870000D01*
X206375000Y-100330000D02*
X206375000Y-102870000D01*
X201295000Y-100330000D02*
X201295000Y-102870000D01*
D47*
X136652000Y-116586000D02*
X207772000Y-116586000D01*
X135636000Y-115570000D02*
X87884000Y-115570000D01*
X136652000Y-116586000D02*
X135636000Y-115570000D01*
X199009000Y-105664000D02*
X196215000Y-102870000D01*
X207264000Y-105664000D02*
X199009000Y-105664000D01*
X207772000Y-106172000D02*
X207264000Y-105664000D01*
X207772000Y-116586000D02*
X207772000Y-106172000D01*
X196215000Y-100330000D02*
X196215000Y-102870000D01*
D46*
X94742000Y-98806000D02*
X93472000Y-97790000D01*
X202692000Y-58420000D02*
X201168000Y-59944000D01*
X201168000Y-59944000D02*
X192278000Y-59944000D01*
X192278000Y-59944000D02*
X183769002Y-68452998D01*
X183769002Y-68452998D02*
X159385002Y-68452998D01*
X159385002Y-68452998D02*
X156718000Y-71120000D01*
X156718000Y-71120000D02*
X146304000Y-71120000D01*
X146304000Y-92202000D02*
X133858000Y-92202000D01*
X133858000Y-92202000D02*
X132842000Y-93218000D01*
X202692000Y-55372000D02*
X202692000Y-58420000D01*
X132842000Y-98044000D02*
X132080000Y-98806000D01*
X132080000Y-98806000D02*
X94742000Y-98806000D01*
X132842000Y-93218000D02*
X132842000Y-98044000D01*
X93472000Y-97790000D02*
X93472000Y-94234000D01*
X207264000Y-55372000D02*
X202692000Y-55372000D01*
D45*
X202692000Y-70612000D02*
X210058000Y-63246000D01*
X210058000Y-63246000D02*
X216408000Y-63246000D01*
X162814000Y-79502000D02*
X151384000Y-79502000D01*
X200787002Y-72516998D02*
X167513002Y-72516998D01*
X167513002Y-72516998D02*
X165862000Y-74168000D01*
X165862000Y-74168000D02*
X165862000Y-76454000D01*
X165862000Y-76454000D02*
X162814000Y-79502000D01*
X202692000Y-70612000D02*
X200787002Y-72516998D01*
D46*
X162687000Y-120523000D02*
X135255000Y-120523000D01*
X135255000Y-120523000D02*
X134239000Y-119507000D01*
X134239000Y-119507000D02*
X129413000Y-119507000D01*
X193040000Y-123825000D02*
X193040000Y-122174000D01*
X203327000Y-123063000D02*
X199263000Y-123063000D01*
X199263000Y-123063000D02*
X197866000Y-124460000D01*
X197866000Y-124460000D02*
X197866000Y-125857000D01*
X197866000Y-125857000D02*
X196850000Y-126873000D01*
X196850000Y-126873000D02*
X194564000Y-126873000D01*
X194564000Y-126873000D02*
X193040000Y-125349000D01*
X193040000Y-125349000D02*
X193040000Y-123825000D01*
X205232000Y-124968000D02*
X203327000Y-123063000D01*
X192405000Y-121539000D02*
X163703000Y-121539000D01*
X193040000Y-122174000D02*
X192405000Y-121539000D01*
X163703000Y-121539000D02*
X162687000Y-120523000D01*
X99060000Y-85725000D02*
X97663000Y-87122000D01*
X97663000Y-87122000D02*
X97663000Y-96520000D01*
X97663000Y-96520000D02*
X98171000Y-97028000D01*
X98171000Y-97028000D02*
X127889000Y-97028000D01*
X99060000Y-85725000D02*
X99060000Y-83820000D01*
X127889000Y-119507000D02*
X129413000Y-119507000D01*
X205232000Y-124968000D02*
X204978000Y-124968000D01*
X205232000Y-124968000D02*
X210058000Y-124968000D01*
X130048000Y-101092000D02*
X96520000Y-101092000D01*
X147828000Y-103632000D02*
X144272000Y-107188000D01*
X130048000Y-107950000D02*
X130048000Y-101092000D01*
X132842000Y-110744000D02*
X130048000Y-107950000D01*
X137922000Y-110744000D02*
X132842000Y-110744000D01*
X141478000Y-107188000D02*
X137922000Y-110744000D01*
X144272000Y-107188000D02*
X141478000Y-107188000D01*
X146812000Y-94488000D02*
X136398000Y-94488000D01*
X136398000Y-94488000D02*
X134874000Y-96012000D01*
X134874000Y-96012000D02*
X134874000Y-100330000D01*
X134874000Y-100330000D02*
X134112000Y-101092000D01*
X134112000Y-101092000D02*
X130048000Y-101092000D01*
X147828000Y-95504000D02*
X146812000Y-94488000D01*
X147828000Y-96012000D02*
X147828000Y-95504000D01*
D47*
X76073000Y-115443000D02*
X74041000Y-115443000D01*
X72009000Y-117475000D02*
X69850000Y-117475000D01*
X212344000Y-118618000D02*
X135890000Y-118618000D01*
X135890000Y-118618000D02*
X134874000Y-117602000D01*
X134874000Y-117602000D02*
X78232000Y-117602000D01*
X78232000Y-117602000D02*
X76073000Y-115443000D01*
X74041000Y-115443000D02*
X72009000Y-117475000D01*
D46*
X224028000Y-110998000D02*
X224028000Y-109474000D01*
X203835000Y-104267000D02*
X203835000Y-102870000D01*
X204470000Y-104902000D02*
X203835000Y-104267000D01*
X219456000Y-104902000D02*
X204470000Y-104902000D01*
X224028000Y-109474000D02*
X219456000Y-104902000D01*
X203835000Y-100330000D02*
X203835000Y-102870000D01*
X226695000Y-100330000D02*
X226695000Y-102870000D01*
M02*
